<?xml version="1.0" encoding="UTF-8"?>
<svg width="60px" height="75px" viewBox="0 0 60 75" xmlns="http://www.w3.org/2000/svg" xmlns:xlink="http://www.w3.org/1999/xlink" version="1.1">
 <!-- Generated by Pixelmator Pro 2.2 -->
 <path id="Path" d="M22.615 11.027 C22.815 11.014 22.989 11.003 23.161 11.003 23.726 11.004 24.287 11.093 24.825 11.267 25.982 10.228 27.219 9.282 28.525 8.439 29.425 7.857 30.582 7.857 31.482 8.439 32.788 9.282 34.026 10.228 35.182 11.267 35.888 11.056 36.625 10.974 37.36 11.024 38.59 11.145 39.811 11.339 41.018 11.604 38.201 7.923 34.767 4.759 30.868 2.252 30.335 1.914 29.655 1.917 29.125 2.258 25.232 4.762 21.804 7.923 18.992 11.6 20.187 11.338 21.397 11.146 22.615 11.027 Z" fill="#FCFCFC" fill-opacity="1" stroke="none"/>
 <path id="Path-1" d="M38.57 50 C37.387 50.002 36.224 49.691 35.199 49.1 34.926 48.944 34.665 48.768 34.418 48.574 33.532 49.267 32.612 49.916 31.66 50.516 30.649 51.157 29.359 51.157 28.348 50.516 27.398 49.916 26.478 49.268 25.593 48.575 25.341 48.774 25.073 48.953 24.793 49.11 23.771 49.7 22.611 50.007 21.432 50 Q21.122 50 20.807 49.974 C20.491 49.943 20.18 49.905 19.87 49.867 22.548 52.886 25.626 55.526 29.018 57.712 29.613 58.105 30.386 58.105 30.981 57.712 34.375 55.525 37.454 52.885 40.133 49.864 39.826 49.902 39.519 49.94 39.207 49.97 38.995 49.992 38.783 50.002 38.57 50 Z" fill="#FCFCFC" fill-opacity="1" stroke="none"/>
 <path id="Path-2" d="M33.212 38.522 C33.446 39.026 33.83 39.446 34.312 39.722 34.826 40.012 35.416 40.138 36.003 40.082 39.246 39.739 42.396 38.789 45.288 37.282 45.551 37.157 45.71 36.883 45.688 36.592 45.543 33.331 44.789 30.126 43.467 27.141 43.222 26.609 42.821 26.163 42.317 25.863 41.83 25.591 41.272 25.474 40.717 25.528 42.039 31.159 38.754 36.847 33.217 38.517 Z" fill="#FCFCFC" fill-opacity="1" stroke="none"/>
 <path id="Path-3" d="M55.036 12.643 C50.578 10.327 45.75 8.805 40.77 8.143 41.63 9.11 42.439 10.122 43.193 11.173 43.451 11.546 43.673 11.943 43.854 12.358 45.738 12.939 47.569 13.681 49.327 14.574 50.392 15.115 51.045 16.226 51 17.419 50.885 19.727 50.535 22.018 49.956 24.255 51.018 24.954 51.865 25.936 52.4 27.09 52.6 27.534 52.79 27.977 52.97 28.418 54.763 23.925 55.788 19.163 56 14.33 56.05 13.624 55.669 12.958 55.036 12.643 Z" fill="#FCFCFC" fill-opacity="1" stroke="none"/>
 <path id="Path-4" d="M38.485 41.734 C37.745 41.875 36.985 41.999 36.185 42.077 36.028 42.092 35.879 42.103 35.728 42.103 34.88 42.104 34.046 41.882 33.31 41.459 32.327 40.899 31.581 40.001 31.21 38.933 30.407 39.026 29.597 39.026 28.794 38.933 28.423 40.002 27.677 40.899 26.694 41.46 25.961 41.882 25.13 42.103 24.284 42.099 24.132 42.099 23.984 42.092 23.828 42.078 23.028 42 22.271 41.878 21.528 41.736 23.739 44.525 26.404 46.922 29.412 48.825 29.772 49.063 30.24 49.063 30.6 48.825 33.608 46.921 36.274 44.524 38.485 41.734 Z" fill="#FCFCFC" fill-opacity="1" stroke="none"/>
 <path id="Path-5" d="M29.481 25.974 C29.481 25.974 28.525 29.39 28.507 29.474 28.507 29.474 31.938 28.588 32.015 28.564 32.015 28.561 29.543 26.031 29.481 25.974 Z" fill="#FCFCFC" fill-opacity="1" stroke="none"/>
 <path id="Path-6" d="M38.555 27.167 C37.602 26.622 36.388 26.947 35.835 27.895 35.054 29.231 33.77 30.199 32.271 30.583 L28.638 31.501 C28.71 31.708 28.799 31.909 28.906 32.101 29.789 33.631 29.56 35.56 28.343 36.841 30.975 37.345 33.695 36.646 35.758 34.935 37.82 33.224 39.01 30.68 39 28 39 27.829 38.984 27.662 38.974 27.493 38.85 27.366 38.709 27.256 38.555 27.167 Z" fill="#FCFCFC" fill-opacity="1" stroke="none"/>
 <path id="Path-7" d="M27.659 25.072 C27.442 25.028 27.221 25.004 27 25 25.232 25.007 23.674 23.839 23.185 22.139 21.374 24.233 20.631 27.046 21.172 29.761 21.713 32.477 23.478 34.79 25.953 36.03 26.124 35.984 26.289 35.917 26.444 35.83 27.387 35.266 27.71 34.055 27.173 33.097 26.41 31.755 26.214 30.163 26.628 28.676 Z" fill="#FCFCFC" fill-opacity="1" stroke="none"/>
 <path id="Path-8" d="M30 19 C28.25 18.999 26.539 19.512 25.078 20.474 25.028 20.645 25.002 20.822 25 21 25.019 22.097 25.903 22.981 27 23 28.55 23.009 30.031 23.639 31.112 24.749 L33.712 27.433 C33.856 27.268 33.985 27.09 34.099 26.903 34.988 25.379 36.77 24.617 38.486 25.028 37.223 21.422 33.821 19.005 30 19 Z" fill="#FCFCFC" fill-opacity="1" stroke="none"/>
 <path id="Path-9" d="M17.693 25.868 C17.187 26.169 16.784 26.617 16.539 27.153 15.219 30.134 14.467 33.334 14.321 36.591 14.295 36.878 14.448 37.152 14.706 37.281 17.602 38.792 20.757 39.744 24.006 40.087 24.59 40.143 25.177 40.017 25.688 39.728 26.171 39.45 26.555 39.028 26.788 38.522 21.251 36.849 17.969 31.159 19.293 25.528 18.737 25.471 18.178 25.59 17.693 25.868 Z" fill="#FCFCFC" fill-opacity="1" stroke="none"/>
 <path id="Path-10" d="M11.591 16.352 C11.215 16.537 10.984 16.927 11.002 17.346 11.186 21.233 12.097 25.05 13.69 28.6 13.713 28.648 13.749 28.686 13.774 28.734 14.049 27.915 14.365 27.11 14.721 26.323 15.14 25.413 15.827 24.652 16.69 24.143 17.668 23.571 18.821 23.376 19.933 23.593 20.263 22.85 20.674 22.146 21.159 21.493 20.408 20.638 19.996 19.538 20 18.4 20.001 17.396 20.319 16.418 20.908 15.606 21.559 14.696 22.269 13.83 23.034 13.014 22.948 13.014 22.861 13.014 22.775 13.019 18.873 13.43 15.081 14.56 11.591 16.352 Z" fill="#FCFCFC" fill-opacity="1" stroke="none"/>
 <path id="Path-11" d="M30.4 10.125 C30.157 9.966 29.843 9.966 29.6 10.125 26.854 11.883 24.458 14.137 22.537 16.772 22.191 17.245 22.003 17.814 22 18.4 21.998 18.964 22.173 19.515 22.5 19.975 26.709 16.012 33.274 16.009 37.487 19.968 37.817 19.511 37.996 18.963 38 18.4 37.998 17.816 37.813 17.247 37.469 16.774 35.546 14.138 33.149 11.883 30.4 10.125 Z" fill="#FCFCFC" fill-opacity="1" stroke="none"/>
 <path id="Path-12" d="M48.407 16.35 C44.907 14.556 41.105 13.426 37.194 13.018 37.127 13.018 37.039 13.011 36.955 13.008 37.725 13.826 38.439 14.695 39.094 15.608 40.387 17.389 40.285 19.825 38.848 21.492 39.332 22.145 39.741 22.849 40.07 23.592 41.18 23.386 42.327 23.578 43.309 24.135 44.17 24.643 44.856 25.401 45.275 26.309 45.633 27.098 45.95 27.905 46.226 28.727 46.252 28.677 46.289 28.637 46.313 28.586 47.904 25.037 48.815 21.222 49 17.337 49.014 16.92 48.782 16.533 48.407 16.35 Z" fill="#FCFCFC" fill-opacity="1" stroke="none"/>
 <path id="Path-13" d="M49.348 26.292 C49.001 27.361 48.593 28.409 48.127 29.431 47.831 30.068 47.42 30.644 46.914 31.131 47.34 32.897 47.595 34.7 47.677 36.515 47.734 37.583 47.155 38.583 46.2 39.064 44.637 39.872 43.003 40.534 41.318 41.041 41.165 41.405 40.974 41.752 40.749 42.076 39.366 43.97 37.778 45.705 36.014 47.25 36.076 47.29 36.133 47.336 36.198 47.374 37.044 47.866 38.025 48.076 38.998 47.974 43.918 47.453 48.697 46.014 53.087 43.73 53.647 43.455 53.985 42.868 53.941 42.245 53.725 37.303 52.585 32.445 50.58 27.923 50.288 27.299 49.868 26.743 49.348 26.292 Z" fill="#FCFCFC" fill-opacity="1" stroke="none"/>
 <path id="Path-14" d="M4 14.326 C4.229 19.159 5.255 23.921 7.036 28.419 7.214 27.981 7.401 27.541 7.602 27.1 8.139 25.945 8.985 24.963 10.048 24.261 9.468 22.025 9.117 19.736 9 17.429 8.951 16.234 9.603 15.12 10.668 14.576 12.425 13.683 14.256 12.941 16.139 12.358 16.32 11.937 16.545 11.537 16.81 11.164 17.564 10.116 18.372 9.107 19.23 8.142 14.256 8.802 9.434 10.322 4.98 12.634 4.34 12.946 3.952 13.615 4 14.326 Z" fill="#FCFCFC" fill-opacity="1" stroke="none"/>
 <path id="Path-15" d="M9.42 27.933 C7.416 32.45 6.277 37.302 6.062 42.238 6.015 42.861 6.349 43.451 6.907 43.731 11.294 46.015 16.07 47.455 20.988 47.978 21.964 48.072 22.945 47.863 23.797 47.378 23.868 47.338 23.926 47.29 23.997 47.248 22.234 45.705 20.647 43.971 19.265 42.079 19.04 41.754 18.849 41.407 18.696 41.043 17.005 40.534 15.365 39.87 13.796 39.059 12.846 38.574 12.272 37.575 12.331 36.51 12.413 34.696 12.668 32.895 13.094 31.13 12.591 30.645 12.181 30.072 11.885 29.439 11.416 28.417 11.005 27.369 10.654 26.3 10.133 26.752 9.712 27.308 9.42 27.933 Z" fill="#FCFCFC" fill-opacity="1" stroke="none"/>
</svg>
