<?xml version="1.0" encoding="UTF-8"?>
<svg width="100px" height="125px" viewBox="0 0 100 125" xmlns="http://www.w3.org/2000/svg" xmlns:xlink="http://www.w3.org/1999/xlink" version="1.1">
 <!-- Generated by Pixelmator Pro 2.2 -->
 <path id="Path" d="M81.08 57.64 C80.84 56.882 80.05 56.444 79.28 56.64 77.467 56.883 75.631 56.917 73.81 56.74 L73 56.64 C74.92 55.91 76.86 55.25 78.84 54.69 79.981 54.343 80.637 53.15 80.32 52 80.003 50.851 78.827 50.163 77.67 50.45 75.41 51.09 73.2 51.86 71.02 52.72 71.302 51.738 71.723 50.802 72.27 49.94 72.77 49.14 71.5 48.4 71 49.2 70.196 50.483 69.636 51.903 69.35 53.39 68.2 53.87 67.05 54.39 65.92 54.89 64.79 55.39 63.69 55.89 62.59 56.48 L62.59 56.39 C62.8 55.99 63.03 55.6 63.27 55.22 63.691 54.536 64.183 53.899 64.74 53.32 65.03 53.01 65.34 52.71 65.66 52.42 65.83 52.27 66.01 52.11 66.2 51.96 L66.36 51.83 66.58 51.67 C67.254 51.245 67.481 50.369 67.1 49.67 66.688 48.978 65.797 48.746 65.1 49.15 63.786 50.106 62.614 51.244 61.62 52.53 61.538 52.331 61.468 52.127 61.41 51.92 61.36 51.72 61.31 51.52 61.27 51.32 L61.27 51.12 C61.27 51.12 61.27 50.93 61.27 50.91 61.23 50.504 61.23 50.096 61.27 49.69 61.27 49.287 60.943 48.96 60.54 48.96 60.141 48.97 59.82 49.291 59.81 49.69 59.667 51.153 59.982 52.624 60.71 53.9 59.805 55.333 59.13 56.898 58.71 58.54 57.3 59.32 55.91 60.12 54.54 60.98 L54.1 49.25 C55.81 47.51 57.61 45.85 59.48 44.25 62.57 44.745 65.704 44.916 68.83 44.76 69.382 44.806 69.913 44.537 70.204 44.065 70.494 43.593 70.494 42.997 70.204 42.525 69.913 42.053 69.382 41.784 68.83 41.83 66.773 41.938 64.712 41.902 62.66 41.72 63.34 41.21 64.02 40.72 64.66 40.24 65.3 39.76 66.21 39.17 67 38.66 68.195 38.954 69.413 39.144 70.64 39.23 72.946 41.357 75.879 42.679 79 43 79.261 43 79.502 42.861 79.633 42.635 79.764 42.409 79.764 42.131 79.633 41.905 79.502 41.679 79.261 41.54 79 41.54 76.883 41.285 74.863 40.508 73.12 39.28 74.5 39.223 75.871 39.046 77.22 38.75 77.96 38.501 78.376 37.718 78.169 36.966 77.962 36.214 77.203 35.754 76.44 35.92 74.656 36.319 72.822 36.447 71 36.3 72.4 35.52 73.82 34.77 75.26 34.07 76.299 33.454 76.651 32.118 76.05 31.07 75.42 30.049 74.101 29.702 73.05 30.28 69.578 31.979 66.236 33.931 63.05 36.12 63.05 35.99 63.05 35.85 63.1 35.72 63.15 35.59 63.16 35.33 63.16 35.28 63.16 35.23 63.23 34.91 63.27 34.72 63.35 34.35 63.44 33.99 63.55 33.63 63.6 33.47 63.66 33.32 63.72 33.16 63.78 33 63.79 32.99 63.72 33.16 L63.82 32.96 C63.963 32.664 64.131 32.379 64.32 32.11 L64.47 31.93 C64.599 31.792 64.736 31.662 64.88 31.54 65.444 30.961 65.444 30.039 64.88 29.46 64.301 28.908 63.389 28.908 62.81 29.46 60.3 31.69 60.13 35.34 59.81 38.46 57.81 40 55.81 41.63 53.93 43.36 L53.48 31.5 C54.84 30.618 55.962 29.416 56.75 28 58.006 25.745 58.364 23.098 57.75 20.59 57.634 20.058 57.234 19.633 56.71 19.486 56.186 19.339 55.623 19.494 55.248 19.889 54.873 20.284 54.747 20.854 54.92 21.37 55.35 23.112 55.103 24.953 54.23 26.52 54.12 26.7 54.02 26.87 53.9 27.04 L53.68 27.36 C53.58 27.48 53.47 27.6 53.36 27.71 L53 20.68 53 15.73 C52.917 14.44 51.847 13.436 50.555 13.436 49.263 13.436 48.193 14.44 48.11 15.73 L48.11 20.73 48.11 23.27 C47.659 22.776 47.284 22.216 47 21.61 46.187 19.71 45.733 17.676 45.66 15.61 45.639 14.807 44.993 14.161 44.19 14.14 43.382 14.146 42.73 14.802 42.73 15.61 42.823 18.259 43.442 20.862 44.55 23.27 45.377 24.779 46.592 26.039 48.07 26.92 L48.07 28 47.57 39.9 C47.11 39.74 46.64 39.58 46.18 39.4 L45.68 39.19 45.5 39.12 C45.1 38.94 44.7 38.76 44.31 38.56 L44.08 38.45 C44.346 34.559 43.215 30.701 40.89 27.57 40.465 26.897 39.593 26.666 38.89 27.04 38.198 27.452 37.966 28.343 38.37 29.04 40.081 31.295 41.071 34.013 41.21 36.84 40.84 36.6 40.47 36.36 40.11 36.11 L39.11 35.41 38.73 35.12 38.37 34.83 C37.106 33.809 35.919 32.696 34.82 31.5 34.5 31.15 34.19 30.8 33.89 30.44 L33.47 29.94 33.17 29.55 Q32.36 28.47 31.64 27.33 C31.027 26.281 29.679 25.928 28.63 26.541 27.581 27.154 27.228 28.501 27.84 29.55 28.986 31.352 30.295 33.046 31.75 34.61 29.222 35.433 26.533 35.636 23.91 35.2 23.139 35.013 22.353 35.448 22.1 36.2 21.892 36.974 22.334 37.774 23.1 38.01 24.335 38.218 25.587 38.312 26.84 38.29 L26.75 38.41 26.75 38.48 26.68 38.57 26.6 38.67 26.39 38.91 C26.25 39.07 26.1 39.22 25.94 39.37 25.78 39.52 25.63 39.64 25.46 39.78 L25.33 39.87 25.04 40.07 C24.815 40.202 24.677 40.444 24.679 40.705 24.681 40.966 24.822 41.207 25.049 41.335 25.276 41.464 25.555 41.462 25.78 41.33 26.994 40.541 27.988 39.457 28.67 38.18 30.499 37.992 32.292 37.551 34 36.87 37.014 39.578 40.462 41.758 44.2 43.32 45.2 43.75 46.29 44.12 47.35 44.45 L46.52 64.6 C43.551 61.839 40.437 59.239 37.19 56.81 37.274 55.358 37.118 53.902 36.73 52.5 37.753 51.663 38.488 50.527 38.83 49.25 38.927 48.862 38.703 48.466 38.32 48.35 38.133 48.298 37.933 48.322 37.764 48.418 37.595 48.514 37.471 48.673 37.42 48.86 37.372 49.039 37.316 49.216 37.25 49.39 37.254 49.43 37.254 49.47 37.25 49.51 37.25 49.6 37.18 49.68 37.13 49.77 37.054 49.924 36.971 50.074 36.88 50.22 L36.73 50.44 36.64 50.57 36.26 51 C35.665 49.568 34.818 48.254 33.76 47.12 33.188 46.549 32.262 46.549 31.69 47.12 31.119 47.692 31.119 48.618 31.69 49.19 32.726 50.309 33.492 51.65 33.93 53.11 34.05 53.51 34.14 53.91 34.22 54.31 L34.29 54.73 C31.411 52.737 28.289 51.12 25 49.92 24.06 49.808 23.171 50.371 22.869 51.267 22.566 52.164 22.934 53.15 23.75 53.63 24.573 53.915 25.378 54.249 26.16 54.63 24.279 55.246 22.286 55.447 20.32 55.22 19.931 55.217 19.557 55.37 19.281 55.644 19.005 55.918 18.85 56.291 18.85 56.68 18.871 57.483 19.517 58.129 20.32 58.15 23.485 58.473 26.676 57.865 29.5 56.4 32.126 57.989 34.645 59.75 37.04 61.67 34.261 62.915 31.126 63.117 28.21 62.24 26.4 61.69 25.63 64.52 27.43 65.06 29.396 65.649 31.46 65.84 33.5 65.62 33.44 65.73 33.39 65.85 33.33 65.96 33.27 66.07 33.11 66.34 32.99 66.51 L32.88 66.67 32.88 66.74 32.82 66.81 32.7 66.95 C32.422 67.268 32.117 67.563 31.79 67.83 L31.71 67.89 31.59 67.98 31.3 68.17 C31.11 68.29 30.91 68.4 30.71 68.5 30.543 68.598 30.421 68.758 30.373 68.946 30.324 69.134 30.352 69.333 30.45 69.5 30.661 69.839 31.101 69.953 31.45 69.76 33.246 68.851 34.607 67.264 35.23 65.35 36.755 65.022 38.221 64.466 39.58 63.7 42.37 66.05 44.75 68.29 46.34 69.83 L45.74 84.2 C45.713 84.864 45.958 85.511 46.418 85.99 46.879 86.47 47.515 86.741 48.18 86.74 L53 86.74 C53.663 86.744 54.299 86.476 54.76 86 55.223 85.526 55.469 84.882 55.44 84.22 L54.75 66 C55.93 65.21 57.14 64.46 58.36 63.73 59.604 64.33 60.908 64.796 62.25 65.12 63.422 66.583 65.03 67.634 66.84 68.12 67.027 68.172 67.227 68.148 67.396 68.052 67.565 67.956 67.689 67.797 67.74 67.61 67.843 67.221 67.616 66.822 67.23 66.71 67 66.65 66.77 66.58 66.55 66.5 L66.42 66.5 66.31 66.5 66.2 66.5 66 66.36 C65.584 66.158 65.185 65.921 64.81 65.65 L64.72 65.59 C66.983 65.834 69.272 65.675 71.48 65.12 73.31 64.66 72.54 61.84 70.71 62.3 67.688 63.053 64.514 62.928 61.56 61.94 63.37 60.94 65.21 60.01 67.08 59.14 67.67 58.86 68.27 58.6 68.86 58.34 70.174 59.091 71.648 59.517 73.16 59.58 73.81 59.66 74.46 59.7 75.1 59.72 75.903 60.676 76.827 61.524 77.85 62.24 78.192 62.442 78.632 62.333 78.841 61.996 79.05 61.659 78.952 61.217 78.62 61 L78.18 60.68 C78.142 60.659 78.109 60.632 78.08 60.6 L77.86 60.43 C77.61 60.22 77.36 59.99 77.12 59.76 78.12 59.76 79.12 59.62 80.12 59.48 80.493 59.365 80.804 59.106 80.984 58.76 81.164 58.415 81.199 58.011 81.08 57.64 Z" fill="#FCFCFC" fill-opacity="1" stroke="none"/>
</svg>
