<?xml version="1.0" encoding="UTF-8"?>
<svg width="512px" height="640px" viewBox="0 0 512 640" xmlns="http://www.w3.org/2000/svg" xmlns:xlink="http://www.w3.org/1999/xlink" version="1.1">
 <!-- Generated by Pixelmator Pro 2.2 -->
 <g id="group">
  <g id="group-1">
   <g id="group-2">
    <path id="Path" d="M210.99 353.5 L300.99 353.5 300.99 393.5 210.99 393.5 Z" fill="#000000" fill-opacity="1" stroke="none"/>
    <path id="Path-1" d="M333.365 82.851 C353.047 118.85 366.717 169.119 371.933 224.574 380.003 205.449 396.894 190.888 417.867 186.794 437.707 182.92 457.74 188.955 472.205 202.511 446.977 114.944 379.16 51.901 295.592 36.925 309.4 46.892 322.135 62.307 333.365 82.851 Z" fill="#000000" fill-opacity="1" stroke="none"/>
    <path id="Path-2" d="M197.97 195.637 C176.468 195.637 157.933 208.898 149.654 227.88 149.533 228.323 149.35 228.734 149.121 229.116 146.76 234.913 145.353 241.217 145.089 247.82 L250.905 337.627 250.905 250.087 C250.906 220.064 227.159 195.637 197.97 195.637 Z" fill="#000000" fill-opacity="1" stroke="none"/>
    <path id="Path-3" d="M425.99 383.5 C417.719 383.5 410.99 390.228 410.99 398.5 410.99 406.772 417.719 413.5 425.99 413.5 434.26 413.5 440.99 406.772 440.99 398.5 440.99 390.228 434.26 383.5 425.99 383.5 Z" fill="#000000" fill-opacity="1" stroke="none"/>
    <path id="Path-4" d="M65.989 353.5 C52.204 353.5 40.989 364.715 40.989 378.5 40.989 392.285 52.204 403.5 65.989 403.5 79.774 403.5 90.989 392.285 90.989 378.5 90.989 364.715 79.774 353.5 65.989 353.5 Z" fill="#000000" fill-opacity="1" stroke="none"/>
    <path id="Path-5" d="M313.844 195.637 C284.653 195.637 260.906 220.063 260.906 250.087 L260.906 337.76 366.722 247.822 C365.567 218.901 342.331 195.637 313.844 195.637 Z" fill="#000000" fill-opacity="1" stroke="none"/>
    <path id="Path-6" d="M39.87 202.288 C55.044 188.228 76.015 182.524 96.267 187.297 116.437 192.053 132.33 206.212 140.004 224.684 148.62 134.512 178.34 65.109 217.318 37.061 133.565 52.265 65.466 115.11 39.87 202.288 Z" fill="#000000" fill-opacity="1" stroke="none"/>
    <path id="Path-7" d="M187.974 87.553 C171.003 118.194 158.551 159.626 152.248 205.85 163.729 193.412 179.978 185.637 197.97 185.637 223.954 185.637 246.312 201.848 255.906 224.912 265.5 201.848 287.858 185.637 313.844 185.637 331.946 185.637 348.283 193.51 359.776 206.081 353.592 159.738 341.329 118.261 324.592 87.648 309.77 60.539 287 33.421 256.085 33.509 231.354 33.704 207.179 52.874 187.974 87.553 Z" fill="#000000" fill-opacity="1" stroke="none"/>
    <path id="Path-8" d="M476.801 225.189 C466.164 203.894 443.145 192.048 419.783 196.608 394.865 201.473 376.779 223.964 376.779 250.087 376.779 250.153 376.761 250.214 376.759 250.279 376.753 250.456 376.732 250.631 376.706 250.806 376.649 251.18 376.633 251.291 376.477 251.733 376.345 252.113 376.306 252.208 376.075 252.605 375.865 252.964 375.783 253.076 375.514 253.378 375.399 253.509 375.282 253.635 375.153 253.754 375.104 253.799 375.067 253.853 375.016 253.896 L269.594 343.5 304.44 343.5 Z" fill="#000000" fill-opacity="1" stroke="none"/>
    <path id="Path-9" d="M242.371 343.5 C225.569 329.236 137.228 254.277 136.663 253.758 136.444 253.558 136.133 253.201 135.999 253.018 135.856 252.82 135.605 252.393 135.507 252.182 135.413 251.98 135.246 251.505 135.188 251.266 135.136 251.053 135.064 250.583 135.053 250.282 135.051 250.216 135.033 250.154 135.033 250.088 135.033 219.331 110.901 195.638 82.1 195.638 62.292 195.638 44.288 206.972 35.198 224.833 L207.544 343.5 Z" fill="#000000" fill-opacity="1" stroke="none"/>
    <path id="Path-10" d="M170.99 403.5 L170.99 455.5 C170.99 470.94 183.551 483.5 198.99 483.5 L312.99 483.5 C328.429 483.5 340.99 470.94 340.99 455.5 L340.99 403.5 C335.889 403.5 176.106 403.5 170.99 403.5 Z" fill="#000000" fill-opacity="1" stroke="none"/>
    <path id="Path-11" d="M475.988 308.5 C475.988 314.023 471.511 318.5 465.988 318.5 460.465 318.5 455.988 314.023 455.988 308.5 455.988 302.977 460.465 298.5 465.988 298.5 471.511 298.5 475.988 302.977 475.988 308.5 Z" fill="#000000" fill-opacity="1" stroke="none"/>
    <path id="Path-12" d="M465.988 58.5 C465.988 64.023 461.511 68.5 455.988 68.5 450.465 68.5 445.988 64.023 445.988 58.5 445.988 52.977 450.465 48.5 455.988 48.5 461.511 48.5 465.988 52.977 465.988 58.5 Z" fill="#000000" fill-opacity="1" stroke="none"/>
    <path id="Path-13" d="M115.989 38.5 C115.989 44.023 111.512 48.5 105.989 48.5 100.466 48.5 95.989 44.023 95.989 38.5 95.989 32.977 100.466 28.5 105.989 28.5 111.512 28.5 115.989 32.977 115.989 38.5 Z" fill="#000000" fill-opacity="1" stroke="none"/>
    <path id="Path-14" d="M55.989 88.5 C55.989 94.023 51.512 98.5 45.989 98.5 40.466 98.5 35.989 94.023 35.989 88.5 35.989 82.977 40.466 78.5 45.989 78.5 51.512 78.5 55.989 82.977 55.989 88.5 Z" fill="#000000" fill-opacity="1" stroke="none"/>
    <path id="Path-15" d="M405.988 448.5 C405.988 454.023 401.511 458.5 395.988 458.5 390.465 458.5 385.988 454.023 385.988 448.5 385.988 442.977 390.465 438.5 395.988 438.5 401.511 438.5 405.988 442.977 405.988 448.5 Z" fill="#000000" fill-opacity="1" stroke="none"/>
    <path id="Path-16" d="M115.989 448.5 C115.989 454.023 111.512 458.5 105.989 458.5 100.466 458.5 95.989 454.023 95.989 448.5 95.989 442.977 100.466 438.5 105.989 438.5 111.512 438.5 115.989 442.977 115.989 448.5 Z" fill="#000000" fill-opacity="1" stroke="none"/>
    <path id="Path-17" d="M95.989 308.5 C95.989 314.023 91.512 318.5 85.989 318.5 80.466 318.5 75.989 314.023 75.989 308.5 75.989 302.977 80.466 298.5 85.989 298.5 91.512 298.5 95.989 302.977 95.989 308.5 Z" fill="#000000" fill-opacity="1" stroke="none"/>
   </g>
  </g>
 </g>
</svg>
