<?xml version="1.0" encoding="UTF-8"?>
<svg width="95px" height="119px" viewBox="0 0 95 119" xmlns="http://www.w3.org/2000/svg" xmlns:xlink="http://www.w3.org/1999/xlink" version="1.1">
 <!-- Generated by Pixelmator Pro 2.2 -->
 <path id="Path" d="M51.677 39.319 L51.677 36.028 C51.677 34.211 53.15 32.738 54.967 32.737 56.784 32.736 58.258 34.209 58.259 36.026 58.26 37.843 56.788 39.317 54.971 39.319 Z M64.115 65.154 C77.323 57.618 83.806 42.136 79.907 27.437 76.008 12.738 62.706 2.503 47.498 2.503 32.291 2.503 18.988 12.738 15.09 27.437 11.191 42.136 17.674 57.618 30.882 65.154 33.098 66.383 34.695 68.488 35.282 70.954 L43.315 70.954 43.315 42.32 40.026 42.32 C36.551 42.319 33.735 39.502 33.735 36.027 33.735 32.552 36.552 29.736 40.027 29.736 43.502 29.736 46.319 32.553 46.319 36.028 L46.319 39.319 48.678 39.319 48.678 36.028 C48.678 32.555 51.494 29.739 54.968 29.738 58.442 29.737 61.259 32.553 61.26 36.027 61.261 39.501 58.446 42.318 54.972 42.32 L51.677 42.32 51.677 70.953 59.71 70.953 C60.297 68.487 61.894 66.382 64.11 65.153 Z M47.5 92.5 C43.352 92.478 39.634 89.935 38.11 86.077 L56.889 86.077 C55.364 89.934 51.648 92.477 47.5 92.5 Z M57.416 83.076 L37.582 83.076 C36.46 83.076 35.55 82.168 35.548 81.046 L35.548 80.208 59.448 80.208 59.448 81.046 C59.446 82.168 58.536 83.076 57.414 83.076 Z M48.678 70.953 L46.319 70.953 46.319 42.32 48.678 42.32 Z M43.319 39.319 L40.026 39.319 C38.208 39.318 36.734 37.844 36.735 36.026 36.736 34.208 38.21 32.734 40.028 32.735 41.846 32.736 43.32 34.21 43.319 36.028 Z M59.448 73.951 L59.448 77.207 35.548 77.207 35.548 73.951 Z" fill="#FCFCFC" fill-opacity="1" stroke="none"/>
</svg>
