<?xml version="1.0" encoding="UTF-8"?>
<svg width="160px" height="200px" viewBox="0 0 160 200" xmlns="http://www.w3.org/2000/svg" xmlns:xlink="http://www.w3.org/1999/xlink" version="1.1">
 <!-- Generated by Pixelmator Pro 2.2 -->
 <path id="Path" d="M132.24 88.04 C132.24 82.29 126.59 77.61 119.64 77.61 116.39 77.61 113.44 78.64 111.2 80.31 108.12 78.35 104.47 77.21 100.59 77.21 L74.35 77.21 C74.56 76.33 74.67 75.43 74.67 74.5 74.67 72.14 73.97 69.89 72.69 68 73.97 66.11 74.67 63.86 74.67 61.49 74.67 58.25 73.32 55.24 71.07 53.09 73.52 49.67 74.83 45.68 74.83 41.51 74.83 37.23 73.44 33.25 71.05 29.92 71.56 27.64 71.82 25.18 71.82 22.77 71.82 14.56 68.92 5.72 62.54 5.72 56.76 5.72 53.84 12.96 53.34 20.42 52.81 20.39 52.29 20.36 51.75 20.36 51.22 20.36 50.7 20.39 50.17 20.42 49.67 12.96 46.75 5.72 40.97 5.72 34.59 5.72 31.69 14.56 31.69 22.77 31.69 25.18 31.95 27.64 32.46 29.92 30.07 33.25 28.68 37.23 28.68 41.51 28.68 46.29 30.46 50.9 33.66 54.6 32.21 56.57 31.4 58.96 31.4 61.49 31.4 63.86 32.1 66.11 33.38 68 32.1 69.89 31.4 72.14 31.4 74.5 31.4 76.15 31.75 77.76 32.41 79.24 29.57 81.39 27.76 84.81 27.76 88.53 27.76 91.2 28.66 93.72 30.26 95.74 28.66 97.75 27.76 100.27 27.76 102.95 27.76 107.16 30.07 110.92 33.52 112.96 33.55 120.81 35.93 127.99 39.85 132.23 L39.85 146.74 C39.85 150.9 43.23 154.28 47.39 154.28 L49.05 154.28 C53.21 154.28 56.59 150.9 56.59 146.74 L56.59 132.23 C56.96 131.83 57.31 131.4 57.65 130.95 57.99 131.4 58.34 131.83 58.71 132.23 L58.71 146.74 C58.71 150.9 62.09 154.28 66.25 154.28 L67.91 154.28 C72.07 154.28 75.45 150.9 75.45 146.74 L75.45 132.23 C77.44 130.08 79.05 127.15 80.15 123.71 L80.46 123.71 C81.55 127.11 83.15 130.06 85.16 132.23 L85.16 146.74 C85.16 150.9 88.54 154.28 92.7 154.28 L94.36 154.28 C98.52 154.28 101.9 150.9 101.9 146.74 L101.9 132.23 C102.35 131.75 102.77 131.22 103.17 130.67 103.58 131.22 104 131.75 104.44 132.23 L104.44 146.74 C104.44 150.9 107.83 154.28 111.99 154.28 L113.65 154.28 C117.8 154.28 121.19 150.9 121.19 146.74 L121.19 132.23 C125.12 127.96 127.52 120.71 127.52 112.8 127.52 107.13 126.3 101.87 124.19 97.77 128.9 96.25 132.24 92.47 132.24 88.04 Z M62.54 12.99 C63.42 14.09 64.82 17.48 64.82 22.77 64.82 23.22 64.8 23.64 64.78 24.06 63.38 23.19 61.87 22.45 60.28 21.87 60.43 17.1 61.71 14.03 62.54 12.99 Z M40.97 12.99 C41.8 14.03 43.08 17.1 43.23 21.87 41.64 22.45 40.13 23.19 38.73 24.06 38.71 23.64 38.69 23.22 38.69 22.77 38.69 17.48 40.09 14.09 40.97 12.99 Z M50.8 128.11 L49.59 129.16 49.59 146.74 C49.59 147.04 49.35 147.28 49.05 147.28 L47.39 147.28 C47.09 147.28 46.85 147.04 46.85 146.74 L46.85 129.16 45.63 128.11 C44.7 127.3 43.77 126.04 42.96 124.4 45.27 125.74 47.89 126.46 50.63 126.46 L52.26 126.46 C51.79 127.13 51.3 127.68 50.8 128.11 Z M96.11 128.11 L94.9 129.16 94.9 146.74 C94.9 147.04 94.66 147.28 94.36 147.28 L92.7 147.28 C92.4 147.28 92.16 147.04 92.16 146.74 L92.16 129.16 90.94 128.11 C89.89 127.19 88.83 125.69 87.95 123.71 L99.11 123.71 C98.23 125.69 97.17 127.19 96.11 128.11 Z M115.4 128.11 C114.63 128.77 114.19 129.74 114.19 130.76 L114.19 146.74 C114.19 147.04 113.95 147.28 113.65 147.28 L111.99 147.28 C111.69 147.28 111.44 147.04 111.44 146.74 L111.44 130.76 C111.44 129.74 111 128.77 110.23 128.11 108.3 126.44 106.7 123.28 105.83 119.44 105.47 117.84 104.05 116.71 102.42 116.71 L77.48 116.71 C75.84 116.71 74.43 117.84 74.07 119.44 73.2 123.28 71.6 126.44 69.67 128.11 68.9 128.77 68.45 129.74 68.45 130.76 L68.45 146.74 C68.45 147.04 68.21 147.28 67.91 147.28 L66.25 147.28 C65.95 147.28 65.71 147.04 65.71 146.74 L65.71 130.76 C65.71 129.74 65.27 128.77 64.5 128.11 63.01 126.83 61.69 124.6 60.77 121.85 60.29 120.42 58.96 119.46 57.45 119.46 L50.63 119.46 C48.38 119.46 46.27 118.58 44.68 117 43.09 115.41 42.22 113.29 42.22 111.05 42.22 109.23 40.82 107.71 39.01 107.56 36.62 107.36 34.76 105.34 34.76 102.95 34.76 101.22 35.71 99.64 37.25 98.84 38.41 98.24 39.13 97.04 39.13 95.74 39.13 94.43 38.41 93.24 37.25 92.63 35.71 91.83 34.76 90.26 34.76 88.53 34.76 86.37 36.29 84.47 38.39 84.01 39.68 83.72 40.7 82.74 41.03 81.47 41.36 80.19 40.95 78.84 39.96 77.97 38.95 77.07 38.4 75.84 38.4 74.5 38.4 73.04 39.08 71.69 40.26 70.8 41.14 70.14 41.66 69.1 41.66 68 41.66 66.9 41.14 65.86 40.26 65.2 39.08 64.31 38.4 62.96 38.4 61.49 38.4 59.9 39.21 58.44 40.56 57.58 41.51 56.98 42.12 55.95 42.18 54.83 42.25 53.7 41.77 52.61 40.89 51.9 37.53 49.18 35.68 45.49 35.68 41.51 35.68 33.71 42.89 27.36 51.75 27.36 60.62 27.36 67.83 33.71 67.83 41.51 67.83 45.15 66.25 48.61 63.38 51.26 62.48 52.09 62.08 53.33 62.32 54.54 62.57 55.74 63.43 56.72 64.58 57.13 66.43 57.79 67.67 59.54 67.67 61.49 67.67 62.96 66.99 64.31 65.81 65.2 64.93 65.86 64.41 66.9 64.41 68 64.41 69.1 64.93 70.14 65.81 70.8 66.99 71.69 67.67 73.04 67.67 74.5 67.67 75.87 67.07 77.16 66.03 78.04 64.91 78.99 64.5 80.54 65 81.92 65.51 83.3 66.82 84.21 68.29 84.21 L100.59 84.21 C106.74 84.21 112.02 88.6 113.13 94.65 113.31 95.61 113.88 96.45 114.7 96.97 117.5 98.75 120.52 104.46 120.52 112.8 120.52 120.32 117.95 125.91 115.4 128.11 Z M119.64 91.48 L119.55 91.48 C118.89 89.19 117.84 87.09 116.48 85.24 117.35 84.85 118.43 84.61 119.64 84.61 122.94 84.61 125.24 86.42 125.24 88.04 125.24 89.67 122.94 91.48 119.64 91.48 Z" fill="#000000" fill-opacity="1" stroke="none"/>
 <path id="Path-1" d="M47.26 36.71 C47.26 38.39 45.9 39.75 44.22 39.75 42.54 39.75 41.18 38.39 41.18 36.71 41.18 35.03 42.54 33.67 44.22 33.67 45.9 33.67 47.26 35.03 47.26 36.71 Z" fill="#000000" fill-opacity="1" stroke="none"/>
 <path id="Path-2" d="M62.29 36.71 C62.29 38.39 60.92 39.75 59.25 39.75 57.57 39.75 56.21 38.39 56.21 36.71 56.21 35.03 57.57 33.67 59.25 33.67 60.92 33.67 62.29 35.03 62.29 36.71 Z" fill="#000000" fill-opacity="1" stroke="none"/>
 <path id="Path-3" d="M47.8 44.567 C47.8 45.639 48.478 46.546 49.425 46.901 49.156 47.989 48.179 48.801 47.01 48.801 45.629 48.801 44.51 49.92 44.51 51.301 44.51 52.682 45.629 53.801 47.01 53.801 48.919 53.801 50.658 53.077 51.983 51.898 53.308 53.078 55.047 53.801 56.956 53.801 58.337 53.801 59.456 52.682 59.456 51.301 59.456 49.92 58.337 48.801 56.956 48.801 55.791 48.801 54.818 47.995 54.545 46.914 55.513 46.569 56.21 45.654 56.21 44.567 56.21 43.186 55.091 42.067 53.71 42.067 L50.3 42.067 C48.919 42.067 47.8 43.186 47.8 44.567 Z" fill="#000000" fill-opacity="1" stroke="none"/>
</svg>
