<?xml version="1.0" encoding="UTF-8"?>
<svg width="67px" height="84px" viewBox="0 0 67 84" xmlns="http://www.w3.org/2000/svg" xmlns:xlink="http://www.w3.org/1999/xlink" version="1.1">
 <!-- Generated by Pixelmator Pro 2.2 -->
 <path id="Path" d="M63.71 58.51 L61.67 58.51 66.24 38.17 C64.99 35.87 57.82 17.14 56.6 14.12 55.31 10.82 52.66 8.33 49.44 7.17 41.29 -1.39 39.76 -3.07 31.18 6.45 28.3 6.42 23.85 5.87 21.32 6.92 18.08 8.33 15.54 10.74 13.81 14.12 12.19 17.29 1.34 35.72 0.03 38.18 L0.15 38.15 C0.15 38.15 0.13 38.18 0.13 38.18 L4.7 58.52 C2.77 58.33 -0.01 58.6 0.03 61.15 0.03 63.23 -0.49 67.17 2.66 67.12 L9.2 67.12 C19.13 66.75 15.66 44.25 13.98 37.86 L20.7 31.14 C20.8 36.92 20.64 61.6 20.64 61.6 17.32 62.31 15.21 63.28 15.63 67.12 L31.8 67.12 C32.13 57.78 33.33 38.07 33.33 38.07 L39.73 44.52 C34.44 52.62 34.24 57.78 34.57 67.12 L50.73 67.12 C51.15 63.28 49.04 62.31 45.72 61.6 L49.68 44.62 46.5 26.11 C45.95 28.32 43.98 29.97 41.61 30.01 37.78 30.17 35.04 25.72 37 22.37 37.21 21.99 37.47 21.64 37.77 21.32 34.03 21.48 32.16 21.41 32.56 17 33.32 12.17 37.43 17.49 42.35 10.84 46.84 10.47 47.98 14.23 47.57 17.96 L47.57 18.97 47.54 18.97 C47.8 14.71 40.75 16.06 38.19 15.86 34.76 15.74 34.41 21 37.78 21.31 38.4 20.67 39.19 20.19 40.07 19.94 L40.07 21.7 44.11 21.7 44.11 20.45 C44.89 20.91 45.54 21.58 45.98 22.38 46.26 22.91 46.47 23.49 46.56 24.09 L38.14 24.09 C38 27.38 44.62 25.77 46.49 26.13 46.49 26.13 50.46 33.8 50.5 33.8 50.67 33.8 52.4 37.82 52.4 37.82 50.72 44.07 47.21 66.79 57.16 67.14 59.48 66.77 66.42 68.56 66.33 64.51 66.33 62.42 66.85 58.49 63.7 58.54 Z M39.73 33.67 C39.04 33.73 38.34 33.77 37.62 33.77 32.22 33.68 27 32.25 23.36 28.47 L28.94 22.89 39.73 33.68 Z" fill="#000000" fill-opacity="1" stroke="none"/>
</svg>
