<?xml version="1.0" encoding="UTF-8"?>
<svg width="100px" height="125px" viewBox="0 0 100 125" xmlns="http://www.w3.org/2000/svg" xmlns:xlink="http://www.w3.org/1999/xlink" version="1.1">
 <!-- Generated by Pixelmator Pro 2.2 -->
 <path id="Path" d="M58.931 40.551 C59.739 39.528 60.499 38.637 61.178 37.688 61.998 36.542 62.728 35.332 63.54 34.18 63.93 33.549 64.079 32.798 63.959 32.065 63.992 30.741 63.673 29.432 63.034 28.272 62.779 27.902 62.438 27.6 62.039 27.392 61.49 27.097 60.832 26.994 60.301 26.676 59.197 25.994 58.621 24.709 58.846 23.432 58.991 21.563 59.129 19.694 59.29 17.827 59.326 17.658 59.419 17.507 59.554 17.399 59.785 17.451 59.994 17.573 60.154 17.748 60.756 18.665 61.283 19.63 61.902 20.535 62.411 21.28 63.057 21.933 63.56 22.681 64.464 24.024 63.796 25.472 63.746 26.877 63.687 27.045 63.652 27.22 63.64 27.398 64.098 28.78 64.585 30.153 65.102 31.636 Q66.067 29.886 67.033 28.133 C67.185 27.857 67.32 27.572 67.483 27.303 68.071 26.33 68.931 25.444 68.26 24.14 67.737 23.126 67.374 22.02 66.767 21.065 66.349 20.591 65.826 20.22 65.241 19.98 64.177 19.319 63.595 18.1 63.749 16.857 63.924 16.063 64.057 15.26 64.147 14.452 64.111 13.951 64.024 13.454 63.888 12.971 63.851 12.772 63.878 12.567 63.967 12.386 64.124 12.318 64.304 12.32 64.459 12.393 64.656 12.491 64.832 12.627 64.976 12.793 65.816 13.717 66.636 14.658 67.48 15.578 68.23 16.21 68.433 17.282 67.967 18.146 67.225 19.285 67.368 20.787 68.312 21.766 68.641 22.272 68.897 22.821 69.074 23.398 69.167 23.364 69.25 23.31 69.319 23.24 69.868 21.838 70.381 20.421 70.955 19.029 71.692 17.242 70.943 15.72 70.087 14.261 69.622 13.496 69.006 12.836 68.275 12.32 67.086 11.627 66.559 10.184 67.023 8.888 67.293 8.141 67.729 7.294 67.048 6.47 67.007 6.266 67.071 6.054 67.218 5.907 67.407 5.831 67.621 5.856 67.786 5.974 68.59 6.716 69.317 7.548 70.156 8.246 71.708 9.538 71.425 11.15 70.962 12.738 70.69 13.305 70.786 13.98 71.206 14.449 71.451 14.841 71.724 15.216 72.022 15.569 72.25 14.296 72.498 13.026 72.702 11.749 72.942 10.553 72.835 9.312 72.395 8.173 71.877 6.906 72.976 4.51 74.144 3.712 74.91 3.188 75.571 2.514 76.303 1.938 76.487 1.766 76.735 1.68 76.986 1.701 77.196 1.865 77.316 2.12 77.308 2.387 77.133 3.972 76.995 5.57 76.672 7.127 76.422 8.362 75.737 9.466 74.742 10.239 74.036 10.769 73.57 11.558 73.446 12.432 73.278 13.474 73.137 14.52 73.003 15.439 74.069 14.96 75.179 14.485 76.262 13.956 76.486 13.803 76.649 13.576 76.723 13.315 76.995 12.139 78.007 11.28 79.212 11.202 80.459 11.111 81.711 11.053 82.96 11.051 83.254 11.148 83.52 11.314 83.738 11.534 83.583 11.794 83.365 12.011 83.105 12.165 82.424 12.342 81.881 12.856 81.667 13.526 80.854 14.994 79.084 15.977 77.682 15.464 76.854 14.996 75.843 14.985 75.006 15.436 73.65 16.119 72.598 17.285 72.056 18.703 Q71.259 21.219 70.453 23.731 L70.179 23.743 C70.525 23.588 70.864 23.414 71.218 23.281 71.914 22.994 72.626 22.747 73.351 22.541 74.263 22.458 75.105 22.018 75.694 21.316 76.47 20.284 77.906 20.365 79.104 20.637 80.441 20.979 81.757 21.399 83.045 21.895 83.279 22.053 83.477 22.258 83.626 22.497 83.487 22.706 83.294 22.875 83.069 22.985 81.596 22.767 80.558 23.776 79.443 24.373 78.58 24.817 77.561 24.845 76.675 24.447 76.371 24.358 76.092 24.202 75.856 23.991 74.788 22.94 73.642 23.323 72.441 23.688 70.341 24.353 68.701 26.005 68.053 28.11 67.497 29.326 66.866 30.507 66.165 31.646 67.331 31.389 68.386 31.154 69.442 30.927 69.712 30.847 69.992 30.804 70.274 30.799 70.832 30.884 71.381 30.604 71.641 30.102 72.482 28.795 74.72 28.407 76.557 29.038 77.886 29.494 79.257 29.826 80.597 30.251 80.843 30.338 81.041 30.524 81.143 30.764 81.1 30.992 80.96 31.191 80.76 31.309 80.018 31.809 79.194 32.202 78.501 32.761 76.437 34.505 73.356 34.276 71.572 32.246 71.234 31.788 70.645 31.591 70.099 31.752 68.613 32.072 66.993 32.026 65.787 33.118 65.085 33.797 64.45 34.542 63.891 35.343 63.163 36.319 62.534 37.369 61.808 38.347 61.101 39.299 60.326 40.199 59.632 41.058 61.348 40.715 63.075 40.375 64.799 40.015 64.983 39.976 65.146 39.869 65.254 39.715 66.164 38.078 67.679 38.049 69.202 38.339 70.193 38.615 71.167 38.954 72.116 39.353 72.789 39.573 73.493 39.695 74.168 39.911 74.426 40.034 74.666 40.19 74.883 40.377 74.76 40.62 74.6 40.842 74.408 41.035 73.677 41.563 72.881 42.005 72.166 42.552 70.763 43.624 68.091 44.41 66.656 42.542 66.272 42.084 65.822 41.686 65.319 41.362 65.036 41.178 64.703 41.088 64.366 41.104 62.805 41.227 61.27 41.581 59.812 42.153 58.443 42.714 57.281 43.685 56.488 44.934 55.562 46.186 54.514 47.349 53.494 48.581 55.363 48.345 57.203 48.112 59.205 47.858 60.306 46.223 62.765 46.236 64.223 46.86 65.796 47.533 67.399 48.14 68.957 48.845 69.17 49.052 69.319 49.317 69.386 49.606 68.653 49.877 67.942 50.203 67.258 50.581 65.409 51.94 63.054 52.411 60.824 51.869 60.27 51.68 59.803 51.294 59.513 50.785 58.433 48.878 58.231 48.899 55.925 49.139 54.712 49.27 53.52 49.557 52.379 49.991 51.741 50.313 51.192 50.787 50.78 51.371 49.373 53.082 48.025 54.842 46.495 56.786 48.316 56.568 49.901 56.427 51.464 56.16 51.944 56.009 52.375 55.733 52.713 55.361 54.369 53.847 56.19 53.893 58.159 54.627 59.311 55.038 60.486 55.385 61.677 55.665 62.386 55.843 62.59 56.148 62.219 56.782 L62.057 56.587 C61.486 56.9 60.949 57.271 60.455 57.695 57.648 60.646 54.042 60.366 51.523 57.563 51.341 57.371 51.094 57.255 50.83 57.238 47.439 57.071 44.206 58.685 42.302 61.496 41.353 62.858 40.242 64.106 39.224 65.422 39.001 65.743 38.799 66.079 38.62 66.427 41.008 65.945 43.342 65.415 45.698 65.028 46.622 64.954 47.483 64.534 48.11 63.852 49.143 62.881 50.597 62.496 51.976 62.83 53.459 63.094 54.926 63.447 56.408 63.713 57.052 63.828 57.725 63.777 58.367 63.898 58.645 64.026 58.894 64.211 59.098 64.44 58.9 64.683 58.642 64.87 58.349 64.981 57.659 64.939 56.995 65.25 56.586 65.807 54.824 67.666 52.233 68.493 49.72 67.999 49.273 67.893 48.884 67.62 48.633 67.235 48.059 66.257 46.925 65.756 45.816 65.99 43.068 66.235 40.387 66.971 37.9 68.162 36.627 68.804 36.076 69.969 35.336 70.971 34.076 72.677 33.025 74.537 31.893 76.337 31.698 76.646 31.541 76.979 31.406 77.227 33.325 76.29 35.262 75.36 37.176 74.386 37.42 74.22 37.588 73.963 37.642 73.672 37.848 72.563 38.645 71.656 39.718 71.31 41.134 70.691 42.682 70.435 44.221 70.564 45.461 70.7 46.722 70.63 47.968 70.723 48.291 70.827 48.59 70.996 48.846 71.219 48.593 71.421 48.348 71.634 48.086 71.824 47.595 72.109 47.133 72.44 46.704 72.813 46.153 73.564 45.563 74.285 44.936 74.975 43.074 76.573 40.916 76.355 38.831 75.549 37.867 75.14 36.76 75.253 35.898 75.848 34.477 76.906 32.949 77.811 31.339 78.55 29.922 79.043 29.797 80.184 29.406 81.107 28.47 83.315 27.805 85.638 27.06 87.828 29.361 86.749 31.641 85.657 33.943 84.615 34.614 84.436 35.068 83.811 35.031 83.117 35.043 81.78 36.16 81.059 37.15 80.561 38.954 79.656 40.973 79.267 42.983 79.437 44.043 79.39 45.096 79.234 46.124 78.974 46.528 78.945 46.934 78.945 47.338 78.973 47.238 79.35 47.098 79.716 46.921 80.064 46.209 81.167 45.513 82.289 44.697 83.314 43.273 85.104 41.514 86.235 39.073 85.763 Q37.437 85.446 35.787 85.199 C35.515 85.156 35.236 85.188 34.979 85.29 33.146 86.094 31.279 86.84 29.511 87.773 27.799 88.675 26.214 89.836 25.646 91.829 25.104 93.732 24.711 95.676 24.231 97.597 24.133 97.853 24.005 98.096 23.848 98.32 23.68 98.063 23.574 97.77 23.538 97.465 23.77 95.69 24.158 93.94 24.698 92.234 25.306 90.823 25.307 89.225 24.703 87.813 24.139 86.449 23.639 85.059 23.064 83.7 22.67 82.924 22.012 82.314 21.209 81.978 19.447 81.015 17.393 80.141 16.831 77.973 16.533 76.408 16.387 74.818 16.394 73.225 16.31 71.799 16.293 70.368 16.262 68.939 16.263 68.773 16.313 68.611 16.406 68.473 16.671 68.443 16.94 68.502 17.168 68.642 18.889 70.697 20.692 72.7 22.236 74.883 23.324 76.407 23.532 78.39 22.785 80.107 22.446 80.795 22.564 81.622 23.082 82.188 24.261 83.823 25.087 85.686 25.509 87.658 25.573 87.891 25.666 88.116 25.835 88.602 26.073 87.882 26.214 87.39 26.398 86.914 27.531 83.984 28.716 81.074 29.775 78.118 29.919 77.448 29.877 76.751 29.655 76.103 29.424 74.784 29.02 73.502 28.454 72.289 27.638 71.08 26.715 69.947 25.696 68.904 24.349 67.462 23.801 65.448 24.23 63.522 24.349 62.37 24.371 61.209 24.296 60.053 24.366 59.742 24.489 59.446 24.659 59.176 24.934 59.299 25.187 59.466 25.408 59.67 26.547 61.156 27.683 62.646 28.761 64.176 29.895 65.785 30.497 67.421 29.501 69.439 28.928 70.415 28.997 71.639 29.676 72.544 30.104 73.379 30.38 74.283 30.492 75.215 30.589 75.571 30.658 75.936 30.734 76.274 32.499 73.688 34.284 71.135 35.985 68.526 36.335 67.948 36.519 67.284 36.515 66.608 36.51 65.33 36.303 64.054 36.216 62.775 36.062 60.448 34.739 58.357 32.703 57.221 32.482 57.038 32.313 56.799 32.213 56.529 31.545 54.793 31.414 52.897 31.838 51.086 32.013 49.854 31.909 48.583 31.962 47.332 32.014 47.103 32.104 46.885 32.23 46.686 32.471 46.771 32.686 46.917 32.854 47.11 33.305 48.629 34.568 49.561 35.434 50.776 35.902 51.432 36.412 52.062 36.822 52.752 36.89 53.042 36.876 53.346 36.782 53.629 36.554 55.362 36.317 57.094 36.088 58.827 36.049 58.977 36.05 59.135 36.092 59.285 36.961 61.377 37.407 63.619 37.406 65.884 37.451 65.97 37.511 66.048 37.582 66.114 37.826 65.825 38.064 65.554 38.288 65.273 39.953 63.189 41.577 61.072 43.293 59.031 44.185 57.97 44.058 56.74 44.084 55.549 44.279 53.793 43.903 52.021 43.012 50.495 42.884 50.281 42.713 50.097 42.508 49.955 41.205 49.148 40.398 47.736 40.364 46.203 40.218 44.735 40.372 43.253 40.817 41.847 40.898 41.115 40.897 40.377 40.814 39.645 40.86 39.282 40.941 38.924 41.057 38.576 41.408 38.72 41.715 38.955 41.947 39.256 42.044 41.281 43.889 42.265 44.622 43.91 45.429 45.702 45.395 47.759 44.531 49.524 44.292 50.01 44.229 50.564 44.353 51.091 44.701 52.924 44.878 54.789 45.135 56.736 45.943 55.835 46.816 54.896 47.651 53.925 48.651 52.763 49.537 51.493 50.622 50.419 51.723 49.329 51.233 48.079 51.259 46.874 51.248 46.436 51.169 46.002 51.024 45.588 50.866 44.682 50.276 43.91 49.443 43.52 48.439 43.063 47.616 42.284 47.106 41.306 46.013 39.477 46.598 37.677 46.95 35.855 47.122 34.963 47.328 34.075 47.574 33.201 47.703 32.949 47.876 32.723 48.085 32.533 48.345 32.739 48.547 33.008 48.672 33.314 48.695 34.163 49.076 34.963 49.721 35.515 51.237 36.951 51.843 39.103 51.298 41.118 51.194 41.511 51.171 41.926 51.068 42.319 50.985 43.046 51.121 43.78 51.459 44.428 51.843 45.663 52.06 46.951 52.387 48.394 53.697 46.859 54.938 45.302 56.287 43.846 58.655 41.293 58.198 38.473 57.197 35.58 57.107 35.247 56.909 34.953 56.635 34.743 54.844 33.743 54.648 32.025 54.621 30.275 54.605 29.246 54.838 28.217 54.887 27.184 54.921 26.456 54.812 25.722 54.812 24.99 54.846 24.713 54.914 24.44 55.015 24.18 55.278 24.282 55.521 24.431 55.731 24.619 56.464 25.596 57.148 26.608 57.857 27.602 59.185 29.461 59.765 31.384 58.556 33.563 57.969 34.534 57.875 35.725 58.303 36.776 58.636 38.011 58.847 39.275 58.931 40.551 Z M40.913 84.669 C40.666 83.512 40.466 82.414 40.176 81.341 40.05 81.06 39.792 80.861 39.489 80.81 38.205 80.801 37.922 81.232 38.11 82.744 38.347 84.644 39.06 85.128 40.913 84.669 Z M42.581 84.007 C43.321 83.649 43.792 81.444 43.055 80.809 42.574 80.544 42.016 80.454 41.477 80.555 41.232 80.814 41.1 81.16 41.11 81.516 41.12 82.173 41.21 82.826 41.377 83.461 41.385 83.741 41.553 83.993 41.809 84.109 42.065 84.225 42.364 84.186 42.581 84.007 Z M50.223 38.707 L50.269 39.045 C49.984 39.127 49.693 39.192 49.416 39.296 48.915 39.47 48.425 39.676 47.95 39.912 47.811 40.056 47.742 40.255 47.764 40.455 47.869 40.583 48.027 40.656 48.193 40.653 50.764 40.35 51.072 39.799 49.977 37.485 49.876 37.271 49.737 37.074 49.62 36.876 47.433 37.843 47.339 37.956 47.767 39.081 48.6 39.105 49.341 38.166 50.223 38.707 Z M61.8 47.527 C61.826 48.713 61.852 49.845 61.879 51.079 62.49 51.106 63.03 51.13 63.611 51.155 63.56 50.307 63.489 49.575 63.479 48.841 63.461 47.563 63.251 47.37 61.8 47.527 Z M21.779 76.697 C20.762 77.153 19.809 77.548 18.892 78.014 18.607 78.154 18.396 78.41 18.312 78.716 18.366 78.966 18.536 79.176 18.769 79.281 19.002 79.386 19.272 79.374 19.495 79.249 19.922 79.055 20.363 78.894 20.815 78.767 22.282 78.386 22.285 78.397 21.779 76.697 Z M17.8 77.403 C18.863 77.033 19.896 76.713 20.89 76.299 21.127 76.084 21.309 75.815 21.419 75.515 21.162 75.262 20.844 75.08 20.494 74.989 19.802 75.122 19.158 75.485 18.474 75.684 17.652 75.922 17.487 76.429 17.8 77.403 Z M56.64 58.782 C56.626 57.804 56.574 56.889 56.615 55.979 56.639 55.448 56.569 55.111 55.958 55.097 55.5 55.087 55.045 55.038 55.089 55.727 55.148 56.643 55.169 57.562 55.26 58.475 55.379 58.646 55.567 58.756 55.775 58.777 56.063 58.803 56.352 58.805 56.64 58.782 Z M61.664 24.462 L61.667 24.469 C61.895 24.367 62.12 24.254 62.353 24.163 62.791 23.993 63.202 23.827 62.857 23.229 62.584 22.757 62.332 22.227 61.649 22.554 61.119 22.745 60.635 23.042 60.225 23.428 60.038 23.855 59.951 24.319 59.97 24.785 60.306 24.801 60.642 24.792 60.976 24.758 61.216 24.688 61.447 24.589 61.664 24.462 Z M33.922 54.01 C33.735 54.182 33.536 54.339 33.324 54.479 33.092 54.55 32.914 54.736 32.852 54.971 32.79 55.206 32.855 55.456 33.022 55.632 33.321 55.833 33.68 55.924 34.039 55.89 34.347 55.857 34.652 55.792 34.947 55.697 35.815 55.535 35.799 54.886 35.714 54.248 35.615 53.498 35.111 53.729 34.653 53.865 34.416 53.935 34.166 53.963 33.922 54.01 Z M52.662 63.765 C51.997 63.939 51.195 63.947 51.099 64.213 50.874 64.985 50.772 65.787 50.794 66.59 50.866 66.844 51.065 67.041 51.319 67.111 51.653 67.092 51.96 66.926 52.158 66.658 52.383 65.832 52.468 64.968 52.662 63.765 Z M44.421 71.727 C44.08 71.667 43.734 71.641 43.388 71.649 43.176 71.701 43.005 71.859 42.935 72.066 42.971 72.749 43.052 73.429 43.175 74.101 43.264 74.601 43.579 74.684 44.004 74.42 44.7 73.701 44.867 72.622 44.421 71.727 Z M26.941 66.307 C26.773 66.34 26.612 66.402 26.466 66.491 26.182 66.678 25.96 66.945 25.83 67.259 25.87 67.53 26.049 67.76 26.301 67.866 26.553 67.972 26.843 67.94 27.065 67.78 27.482 67.567 27.917 67.39 28.364 67.249 28.575 67.226 28.754 67.085 28.824 66.885 28.894 66.684 28.843 66.462 28.692 66.313 28.476 66.071 28.167 65.933 27.842 65.933 27.521 66.001 27.216 66.128 26.941 66.307 Z M69.581 39.583 C69.374 40.367 69.142 41.117 68.984 41.882 68.838 42.589 69.136 42.797 69.83 42.589 70.74 42.316 70.511 41.484 70.692 40.868 70.937 40.033 70.657 39.527 69.581 39.583 Z M75.368 29.903 C74.076 29.569 73.893 29.689 73.816 30.747 73.809 30.997 73.782 31.246 73.735 31.491 73.526 32.377 73.799 32.875 74.873 32.853 75.035 31.888 75.197 30.917 75.368 29.903 Z M41.812 47.626 C42.372 47.375 42.937 47.144 43.481 46.872 44.456 46.385 44.504 46.015 43.727 45.176 43.274 45.443 42.805 45.682 42.323 45.893 41.48 46.208 41.175 46.673 41.812 47.626 Z M40.482 72.157 C40.816 73.349 40.943 74.523 42.339 75.163 42.257 74.055 42.223 73.152 42.097 72.261 41.958 72.036 41.719 71.892 41.455 71.873 41.118 71.917 40.79 72.013 40.482 72.157 Z M17.628 75.082 C18.548 74.668 19.353 74.307 20.167 73.941 19.502 72.863 19.098 72.728 18.158 73.134 17.243 73.53 17.395 74.198 17.628 75.082 Z M28.118 64.952 C27.826 64.543 27.439 64.212 26.989 63.988 26.385 64.017 25.801 64.217 25.305 64.564 25.185 64.923 25.16 65.306 25.235 65.677 25.538 65.706 25.844 65.698 26.146 65.652 26.702 65.499 27.238 65.271 28.118 64.952 Z M57.986 55.535 L57.608 55.691 C57.38 56.579 57.003 57.465 57.556 58.358 57.977 58.361 58.373 58.163 58.623 57.824 58.872 57.486 58.945 57.049 58.819 56.648 58.625 56.222 58.341 55.842 57.986 55.535 Z M43.689 44.346 C43.447 43.694 43.297 42.986 42.584 43.204 42.062 43.456 41.617 43.842 41.294 44.323 41.211 44.584 41.251 44.869 41.401 45.097 41.618 45.17 41.854 45.158 42.062 45.064 42.581 44.869 43.079 44.62 43.689 44.346 Z M61.151 50.945 C61.09 49.934 61.057 49.077 60.968 48.226 60.907 48.034 60.752 47.887 60.558 47.835 60.351 47.844 60.158 47.942 60.028 48.103 59.378 48.919 59.819 50.19 61.151 50.945 Z M67.946 42.47 L68.21 42.347 C68.327 41.55 68.483 40.756 68.536 39.955 68.447 39.7 68.293 39.471 68.09 39.291 67.838 39.393 67.617 39.56 67.449 39.773 67.301 40.316 67.255 40.881 67.313 41.44 67.455 41.821 67.67 42.171 67.946 42.47 Z M53.939 55.624 C53.338 56.058 52.505 56.068 52.623 57.011 52.702 57.409 52.937 57.758 53.277 57.979 53.616 58.201 54.031 58.276 54.426 58.188 54.271 57.373 54.118 56.566 53.939 55.624 Z M37.989 74.165 C38.989 74.556 39.753 74.856 40.724 75.236 40.248 74.175 39.912 73.427 39.476 72.457 38.955 73.056 38.551 73.519 37.989 74.165 Z M35.246 52.836 C34.959 51.847 34.807 51.662 34.252 51.855 33.077 52.265 32.45 52.363 32.752 53.712 33.569 53.425 34.379 53.141 35.246 52.836 Z M49.988 64.062 C48.793 64.211 48.103 64.748 48.383 65.238 48.791 65.858 49.237 66.452 49.717 67.018 49.819 65.903 49.9 65.025 49.988 64.062 Z M58.191 31.52 L57.968 30.405 C57.307 30.592 56.661 30.826 56.034 31.106 55.86 31.357 55.756 31.65 55.733 31.955 55.952 32.068 56.195 32.131 56.442 32.139 57.007 31.995 57.547 31.756 58.191 31.52 Z M64.289 48.232 C64.309 49.076 64.328 49.898 64.348 50.74 64.623 50.855 64.938 50.82 65.181 50.648 65.424 50.476 65.562 50.191 65.545 49.893 65.674 48.705 65.599 48.568 64.289 48.232 Z M63.021 24.683 C62.162 25.069 61.5 25.367 60.551 25.793 61.499 26.178 62.181 26.456 62.931 26.761 62.964 26.01 62.989 25.435 63.021 24.683 Z M75.769 6.355 C73.718 5.782 73.718 5.782 73.602 6.317 74.183 6.533 74.988 6.389 75.242 7.394 74.876 7.358 74.613 7.316 74.349 7.311 74.061 7.305 73.772 7.333 73.483 7.347 L73.452 7.611 C74.025 7.762 74.598 7.912 75.243 8.082 75.432 7.461 75.593 6.933 75.769 6.355 Z M77.357 30.538 L76.325 30.072 C76.106 31.055 75.911 31.932 75.707 32.849 76.622 32.802 76.622 32.802 77.357 30.538 Z M55.66 30.38 C56.413 30.042 57.047 29.757 57.682 29.472 57.57 28.477 56.883 28.614 56.27 28.734 55.375 28.909 55.533 29.573 55.66 30.38 Z M67.378 16.833 C67.085 16.58 66.736 16.399 66.359 16.305 65.767 16.507 65.206 16.788 64.69 17.142 64.608 17.367 64.636 17.617 64.764 17.819 64.97 17.912 65.207 17.91 65.411 17.811 65.998 17.556 66.561 17.246 67.378 16.833 Z M28.857 68.147 L28.721 67.936 Q27.863 68.426 27.005 68.916 C27.337 69.399 27.668 69.881 28.117 70.534 28.422 69.551 28.639 68.849 28.857 68.147 Z M37.603 84.206 C37.55 83.813 37.473 83.424 37.371 83.041 37.246 82.742 37.095 82.455 36.919 82.183 36.602 82.403 36.316 82.666 36.069 82.963 35.975 83.226 35.94 83.508 35.968 83.786 36.544 83.934 37.031 84.059 37.603 84.206 Z M60.017 22.776 C60.68 22.356 61.148 22.06 61.711 21.703 61.218 21.15 60.81 20.694 60.403 20.237 L60.157 20.348 C60.115 21.07 60.073 21.793 60.017 22.776 Z M53.074 66.775 C53.928 66.337 54.423 65.417 54.318 64.463 54.25 64.33 54.126 64.235 53.98 64.204 53.787 64.259 53.624 64.39 53.529 64.567 53.352 65.252 53.237 65.953 53.074 66.775 Z M48.513 41.469 L48.44 41.842 C48.954 42.146 49.468 42.45 50.102 42.825 50.164 42.087 50.208 41.573 50.267 40.87 49.582 41.104 49.048 41.286 48.514 41.469 Z M79.283 21.624 C78.945 21.615 78.608 21.67 78.29 21.786 78.122 22.422 77.991 23.067 77.899 23.718 79.429 23.583 78.824 22.508 79.283 21.624 Z M79.51 12.281 C79.231 12.267 78.953 12.313 78.694 12.418 78.023 12.951 78.587 13.589 78.659 14.174 78.862 14.304 79.091 14.388 79.329 14.418 79.375 13.874 79.421 13.33 79.51 12.281 Z M68.725 9.57 C68.469 9.997 68.301 10.279 68.132 10.561 68.674 10.556 69.214 10.516 69.75 10.442 69.921 10.283 70.046 10.082 70.112 9.858 Z M21.418 81.164 C21.585 80.464 21.707 79.954 21.88 79.23 21.133 79.565 20.613 79.799 19.924 80.108 20.437 80.47 20.864 80.773 21.418 81.164 Z M67.193 18.078 L66.913 17.857 Q66.114 18.264 65.314 18.671 L65.315 19.009 C65.667 19.228 66.069 19.352 66.483 19.371 66.803 18.992 67.045 18.552 67.193 18.078 Z M75.856 5.754 C75.86 5.089 75.864 4.588 75.868 3.868 75.245 4.309 74.885 4.565 74.39 4.915 74.929 5.223 75.314 5.444 75.856 5.754 Z M44.09 47.872 L43.851 47.765 Q43.131 48.218 42.411 48.672 C42.713 48.986 43.145 49.138 43.576 49.082 43.838 48.723 44.013 48.309 44.09 47.872 Z M72.861 32.216 C72.949 31.419 73.018 30.799 73.095 30.106 71.928 30.658 71.866 31.102 72.861 32.216 Z M77.204 21.826 L76.857 21.629 C76.583 21.845 76.367 22.126 76.228 22.446 76.292 22.815 76.435 23.166 76.649 23.474 L76.983 23.382 Z M33.842 56.758 L33.802 57.016 C34.167 57.269 34.533 57.522 35.046 57.877 35.193 57.294 35.297 56.882 35.429 56.359 34.772 56.525 34.307 56.641 33.842 56.758 Z M44.337 82.228 C44.707 81.558 44.994 81.039 45.332 80.427 44.056 80.465 43.888 80.769 44.337 82.228 Z M58.002 32.757 L57.763 32.457 Q57.038 32.782 56.314 33.107 L56.246 33.362 C56.524 33.524 56.839 33.61 57.161 33.611 57.491 33.379 57.776 33.09 58.002 32.757 Z M25.308 63.433 C25.868 63.318 26.228 63.245 26.755 63.136 26.271 62.687 25.932 62.372 25.437 61.912 25.386 62.52 25.354 62.896 25.308 63.433 Z M34.129 50.882 L33.111 49.591 C33.025 50.35 32.974 50.802 32.902 51.433 33.398 51.211 33.667 51.09 34.129 50.882 Z M47.778 36.756 C48.333 36.621 48.703 36.531 49.205 36.409 48.84 36.027 48.557 35.73 48.139 35.293 48.003 35.846 47.913 36.209 47.778 36.756 Z M66.289 15.568 L65.112 14.799 C65.046 15.263 65.003 15.565 64.937 16.03 65.403 15.87 65.704 15.768 66.289 15.568 Z M70.161 11.13 L68.755 11.663 C69.361 11.86 69.724 11.978 70.158 12.119 70.159 11.788 70.16 11.552 70.161 11.13 Z M80.306 13.338 L80.507 13.371 C80.704 12.977 80.902 12.584 81.167 12.055 80.744 12.108 80.495 12.139 80.213 12.175 80.248 12.617 80.277 12.978 80.306 13.338 Z M71.557 40.388 C71.497 40.857 71.458 41.166 71.384 41.753 71.878 41.316 72.143 41.083 72.489 40.777 72.158 40.639 71.941 40.548 71.557 40.388 Z M68.201 9.013 L69.358 8.833 C68.899 8.451 68.644 8.238 68.243 7.903 Z" fill="#000000" fill-opacity="1" stroke="none"/>
</svg>
