<?xml version="1.0" encoding="UTF-8"?>
<svg width="60px" height="75px" viewBox="0 0 60 75" xmlns="http://www.w3.org/2000/svg" xmlns:xlink="http://www.w3.org/1999/xlink" version="1.1">
 <!-- Generated by Pixelmator Pro 2.2 -->
 <path id="Path" d="M44.758 43.641 C43.272 42.57 41.485 41.996 39.653 42 37.331 42 35.185 43.239 34.024 45.25 32.863 47.261 32.863 49.739 34.024 51.75 35.185 53.761 37.331 55 39.653 55 45.189 55 51.415 52.179 52 45.983 L52 45.975 C49.414 45.897 46.903 45.087 44.758 43.641 Z" fill="#000000" fill-opacity="1" stroke="none"/>
 <path id="Path-1" d="M40.24 9 C39.739 9 39.262 9.215 38.93 9.591 L31.339 18.128 35.917 23.275 C38.817 26.539 38.672 31.497 35.587 34.587 35.479 34.695 35.367 34.787 35.257 34.887 39.136 34.27 41.993 30.928 42 27 L42 10.76 C41.999 9.788 41.212 9.001 40.24 9 Z" fill="#000000" fill-opacity="1" stroke="none"/>
 <path id="Path-2" d="M15.242 43.641 C13.099 45.086 10.591 45.895 8.008 45.974 8.586 52.179 14.811 55 20.347 55 22.669 55 24.815 53.761 25.976 51.75 27.137 49.739 27.137 47.261 25.976 45.25 24.815 43.239 22.669 42 20.347 42 18.515 41.996 16.728 42.57 15.242 43.641 Z" fill="#000000" fill-opacity="1" stroke="none"/>
 <path id="Path-3" d="M23.54 5 C22.256 5.004 21.178 5.967 21.03 7.242 21.622 7.449 22.151 7.803 22.57 8.269 L25.746 11.84 28.586 9 25.333 5.747 C24.859 5.268 24.214 4.999 23.54 5 Z" fill="#000000" fill-opacity="1" stroke="none"/>
 <path id="Path-4" d="M36.46 5 C35.786 4.999 35.141 5.268 34.667 5.747 L27.077 13.337 30 16.624 37.432 8.266 C37.85 7.801 38.379 7.448 38.97 7.242 38.822 5.967 37.744 5.004 36.46 5 Z" fill="#000000" fill-opacity="1" stroke="none"/>
 <path id="Path-5" d="M18 10.76 L18 27 C18.005 31.416 21.584 34.995 26 35 L30 35 C31.587 35.007 33.102 34.344 34.173 33.173 36.509 30.832 36.619 27.077 34.422 24.604 L21.073 9.6 C20.59 9.052 19.819 8.861 19.136 9.119 18.453 9.376 18.001 10.03 18 10.76 Z" fill="#000000" fill-opacity="1" stroke="none"/>
 <path id="Path-6" d="M30 7.586 L32.824 4.762 32.5 3.81 C32.141 2.735 31.134 2.01 30 2.01 28.866 2.01 27.859 2.735 27.5 3.81 L27.178 4.765 Z" fill="#000000" fill-opacity="1" stroke="none"/>
 <path id="Path-7" d="M29 37 L31 37 31 58 29 58 Z" fill="#000000" fill-opacity="1" stroke="none"/>
</svg>
