<?xml version="1.0" encoding="UTF-8"?>
<svg width="100px" height="125px" viewBox="0 0 100 125" xmlns="http://www.w3.org/2000/svg" xmlns:xlink="http://www.w3.org/1999/xlink" version="1.1">
 <!-- Generated by Pixelmator Pro 2.2 -->
 <path id="Path" d="M58.793 70.757 C59.009 72.506 57.772 74.1 56.024 74.324 53.947 74.59 51.854 74.726 49.76 74.731 45.922 74.767 42.102 74.205 38.438 73.064 34.327 71.769 30.566 69.551 27.443 66.58 24.825 64.08 22.727 61.087 21.27 57.773 18.289 57.176 15.96 54.842 15.37 51.859 15.032 50.128 16.161 48.451 17.892 48.113 19.623 47.775 21.3 48.904 21.638 50.635 21.714 51.024 21.991 51.342 22.366 51.471 22.74 51.599 23.155 51.518 23.453 51.258 23.752 50.998 23.889 50.599 23.813 50.21 23.475 48.479 24.604 46.802 26.335 46.464 28.066 46.126 29.743 47.255 30.081 48.986 30.597 51.65 29.634 54.386 27.562 56.139 28.68 58.361 30.176 60.372 31.983 62.081 34.415 64.352 37.331 66.041 40.511 67.021 45.289 68.402 50.31 68.731 55.228 67.987 56.978 67.769 58.574 69.008 58.797 70.757 Z M42.824 50.637 C49.304 50.63 54.556 45.38 54.566 38.9 54.587 37.718 53.968 36.617 52.948 36.021 51.928 35.424 50.665 35.424 49.645 36.021 48.625 36.617 48.006 37.718 48.027 38.9 48.025 41.771 45.698 44.097 42.827 44.097 39.956 44.097 37.629 41.771 37.627 38.9 37.648 37.718 37.029 36.617 36.009 36.02 34.989 35.424 33.726 35.424 32.706 36.02 31.686 36.617 31.067 37.718 31.088 38.9 31.098 45.377 36.346 50.626 42.824 50.637 Z M78.735 35.625 C76.93 35.627 75.467 37.09 75.465 38.895 75.466 40.754 74.475 42.471 72.865 43.4 71.256 44.33 69.273 44.329 67.664 43.4 66.055 42.471 65.064 40.753 65.065 38.895 65.086 37.713 64.467 36.612 63.447 36.016 62.427 35.419 61.164 35.419 60.144 36.016 59.124 36.612 58.505 37.713 58.526 38.895 58.487 43.116 60.716 47.032 64.365 49.154 68.014 51.276 72.521 51.276 76.17 49.154 79.819 47.032 82.048 43.116 82.009 38.895 82.007 37.088 80.542 35.625 78.735 35.625 Z M96.591 50 C96.583 72.163 80.967 91.254 59.244 95.655 37.522 100.056 15.706 88.549 7.072 68.137 -2.944 44.427 8.156 17.088 31.864 7.072 55.573 -2.945 82.913 8.155 92.929 31.864 95.357 37.601 96.603 43.77 96.591 50 Z M65.591 86.905 C84.626 78.896 94.494 57.766 88.417 38.029 82.34 18.292 62.295 6.372 42.052 10.457 21.809 14.542 7.955 33.302 10.007 53.851 12.059 74.4 29.349 90.05 50 90.051 55.354 90.058 60.655 88.988 65.588 86.905 Z" fill="#000000" fill-opacity="1" stroke="none"/>
</svg>
