<?xml version="1.0" encoding="UTF-8"?>
<svg width="64px" height="80px" viewBox="0 0 64 80" xmlns="http://www.w3.org/2000/svg" xmlns:xlink="http://www.w3.org/1999/xlink" version="1.1">
 <!-- Generated by Pixelmator Pro 2.2 -->
 <g id="group">
  <path id="Path" d="M6.991 61.076 C6.991 61.341 7.096 61.596 7.284 61.783 7.471 61.971 7.726 62.076 7.991 62.076 L55.9 62.076 C56.257 62.076 56.587 61.885 56.766 61.576 56.945 61.267 56.945 60.885 56.766 60.576 56.587 60.267 56.257 60.076 55.9 60.076 L47.738 60.076 C47.945 59.904 48.147 59.723 48.338 59.53 49.973 57.904 50.89 55.691 50.884 53.385 L50.884 49.735 C50.884 49.47 50.779 49.215 50.591 49.028 50.404 48.84 50.149 48.735 49.884 48.735 L39.636 48.735 C37.33 48.729 35.117 49.645 33.491 51.28 33.299 51.473 33.118 51.674 32.946 51.88 L32.946 38.742 C33.962 38.463 34.817 37.775 35.306 36.842 35.604 37.091 35.937 37.293 36.296 37.442 37.411 37.904 38.679 37.807 39.71 37.18 40.742 36.554 41.413 35.473 41.517 34.271 41.887 34.387 42.273 34.446 42.661 34.445 43.868 34.445 45.002 33.869 45.715 32.896 46.428 31.923 46.635 30.668 46.271 29.517 47.68 29.394 48.904 28.497 49.445 27.19 49.986 25.883 49.755 24.383 48.845 23.3 50.099 22.649 50.886 21.353 50.886 19.94 50.886 18.527 50.099 17.231 48.845 16.58 49.755 15.497 49.986 13.998 49.444 12.692 48.903 11.386 47.679 10.49 46.27 10.369 46.698 9.021 46.339 7.547 45.339 6.547 44.339 5.547 42.865 5.188 41.517 5.616 41.394 4.208 40.498 2.986 39.192 2.445 37.887 1.904 36.389 2.134 35.306 3.041 34.655 1.787 33.359 1 31.946 1 30.533 1 29.237 1.787 28.586 3.041 28.288 2.792 27.955 2.589 27.596 2.441 26.481 1.979 25.212 2.076 24.18 2.703 23.148 3.33 22.478 4.412 22.375 5.615 21.027 5.187 19.553 5.546 18.553 6.546 17.553 7.546 17.194 9.02 17.621 10.368 16.212 10.489 14.988 11.385 14.447 12.691 13.907 13.998 14.139 15.497 15.05 16.578 13.794 17.228 13.006 18.525 13.006 19.939 13.006 21.353 13.794 22.65 15.05 23.3 14.142 24.382 13.911 25.88 14.451 27.186 14.991 28.492 16.213 29.388 17.621 29.512 17.195 30.859 17.554 32.332 18.553 33.331 19.552 34.33 21.025 34.69 22.372 34.264 22.407 34.651 22.5 35.03 22.648 35.389 23.111 36.504 24.077 37.332 25.25 37.617 26.423 37.903 27.662 37.612 28.585 36.835 29.073 37.771 29.928 38.461 30.946 38.741 L30.946 51.881 C30.774 51.674 30.593 51.472 30.4 51.281 28.774 49.646 26.561 48.729 24.255 48.736 L14.006 48.736 C13.741 48.736 13.486 48.841 13.299 49.029 13.111 49.216 13.006 49.471 13.006 49.736 L13.006 53.386 C12.999 55.692 13.916 57.905 15.551 59.531 15.743 59.724 15.946 59.905 16.151 60.077 L7.991 60.077 C7.439 60.077 6.992 60.524 6.991 61.076 Z M34.905 52.694 C36.157 51.436 37.861 50.73 39.636 50.735 L48.886 50.735 48.886 53.385 C48.891 55.16 48.185 56.864 46.926 58.116 45.668 59.366 43.968 60.07 42.195 60.076 L32.946 60.076 32.946 57.425 C32.941 55.65 33.647 53.946 34.905 52.694 Z M19.716 19.94 C19.716 14.992 22.696 10.533 27.266 8.64 31.836 6.747 37.097 7.793 40.594 11.291 44.092 14.789 45.138 20.05 43.245 24.62 41.351 29.19 36.892 32.169 31.945 32.169 25.195 32.162 19.724 26.691 19.716 19.94 Z M39.4 34.623 C39.123 35.29 38.472 35.724 37.75 35.724 37.028 35.724 36.377 35.29 36.1 34.623 L35.7 33.651 C36.854 33.337 37.962 32.878 39 32.284 L39.4 33.256 C39.582 33.693 39.582 34.186 39.4 34.623 Z M43.928 31.923 C43.23 32.619 42.1 32.619 41.402 31.923 L40.655 31.175 C41.599 30.441 42.447 29.593 43.181 28.649 L43.928 29.396 C44.62 30.095 44.619 31.222 43.924 31.919 Z M47.601 26.423 C47.222 27.334 46.178 27.766 45.266 27.389 L44.294 26.989 C44.888 25.951 45.348 24.843 45.662 23.689 L46.633 24.089 C47.543 24.468 47.976 25.511 47.6 26.423 Z M48.89 19.94 C48.889 20.414 48.701 20.869 48.365 21.204 48.029 21.539 47.574 21.727 47.1 21.726 L46.05 21.726 C46.217 20.541 46.217 19.339 46.05 18.154 L47.1 18.154 C48.086 18.155 48.885 18.954 48.886 19.94 Z M47.6 13.458 C47.782 13.896 47.781 14.388 47.6 14.826 47.418 15.263 47.069 15.611 46.631 15.791 L45.661 16.191 C45.347 15.038 44.887 13.929 44.294 12.891 L45.265 12.491 C46.177 12.115 47.221 12.547 47.6 13.458 Z M42.664 7.438 C43.386 7.438 44.037 7.874 44.314 8.541 44.59 9.209 44.438 9.977 43.927 10.488 L43.18 11.235 C42.445 10.291 41.595 9.442 40.65 8.709 L41.398 7.961 C41.732 7.625 42.187 7.437 42.661 7.438 Z M37.064 4.29 C37.732 4.012 38.501 4.164 39.012 4.675 39.524 5.186 39.677 5.955 39.4 6.623 L39 7.595 C37.962 7.001 36.853 6.542 35.7 6.228 L36.1 5.255 C36.279 4.818 36.625 4.471 37.061 4.29 Z M31.946 3 C32.932 3.001 33.731 3.8 33.732 4.786 L33.732 5.836 C32.547 5.669 31.344 5.669 30.159 5.836 L30.159 4.786 C30.161 3.8 30.96 3.001 31.946 3 Z M25.464 4.289 C26.375 3.914 27.418 4.346 27.797 5.255 L28.197 6.228 C27.044 6.544 25.936 7.005 24.9 7.6 L24.5 6.628 C24.121 5.716 24.552 4.669 25.464 4.289 Z M19.964 7.961 C20.662 7.264 21.792 7.264 22.49 7.961 L23.237 8.709 C22.293 9.442 21.444 10.291 20.711 11.235 L19.963 10.488 C19.268 9.788 19.27 8.658 19.968 7.961 Z M16.292 13.461 C16.669 12.55 17.714 12.117 18.625 12.494 L19.596 12.894 C19.003 13.932 18.543 15.041 18.229 16.194 L17.258 15.794 C16.82 15.613 16.472 15.265 16.291 14.827 16.11 14.39 16.11 13.898 16.292 13.46 Z M15.002 19.944 C15.003 18.958 15.802 18.159 16.788 18.158 L17.84 18.158 C17.675 19.343 17.675 20.545 17.84 21.73 L16.792 21.73 C16.318 21.729 15.863 21.541 15.528 21.205 15.193 20.869 15.005 20.414 15.006 19.94 Z M16.3 26.423 C15.923 25.511 16.356 24.467 17.267 24.089 L18.238 23.689 C18.552 24.843 19.012 25.951 19.606 26.989 L18.634 27.389 C17.723 27.765 16.679 27.333 16.3 26.423 Z M22.5 31.923 C21.798 32.593 20.689 32.58 20.003 31.894 19.316 31.208 19.303 30.099 19.973 29.397 L20.721 28.649 C21.454 29.593 22.303 30.442 23.247 31.175 Z M25.469 35.594 C24.559 35.216 24.126 34.172 24.502 33.261 L24.902 32.289 C25.94 32.882 27.049 33.341 28.202 33.656 L27.802 34.628 C27.619 35.066 27.27 35.413 26.832 35.594 26.393 35.774 25.901 35.773 25.463 35.59 Z M30.169 35.094 L30.169 34.044 C31.354 34.211 32.557 34.211 33.742 34.044 L33.742 35.094 C33.719 36.064 32.926 36.839 31.956 36.839 30.985 36.839 30.192 36.064 30.169 35.094 Z M16.965 58.116 C15.707 56.864 15.001 55.16 15.006 53.385 L15.006 50.735 24.255 50.735 C26.029 50.735 27.731 51.439 28.986 52.694 30.241 53.949 30.946 55.651 30.946 57.425 L30.946 60.076 21.7 60.076 C19.925 60.071 18.224 59.367 16.965 58.116 Z" fill="#FCFCFC" fill-opacity="1" stroke="none"/>
  <path id="Path-1" d="M26.3 12.94 L27.6 12.94 C27.957 12.94 28.287 12.749 28.466 12.44 28.645 12.131 28.645 11.749 28.466 11.44 28.287 11.131 27.957 10.94 27.6 10.94 L26.3 10.94 C25.943 10.94 25.613 11.131 25.434 11.44 25.255 11.749 25.255 12.131 25.434 12.44 25.613 12.749 25.943 12.94 26.3 12.94 Z" fill="#FCFCFC" fill-opacity="1" stroke="none"/>
  <path id="Path-2" d="M31.3 12.94 L32.6 12.94 C32.957 12.94 33.287 12.749 33.466 12.44 33.645 12.131 33.645 11.749 33.466 11.44 33.287 11.131 32.957 10.94 32.6 10.94 L31.3 10.94 C30.943 10.94 30.613 11.131 30.434 11.44 30.255 11.749 30.255 12.131 30.434 12.44 30.613 12.749 30.943 12.94 31.3 12.94 Z" fill="#FCFCFC" fill-opacity="1" stroke="none"/>
  <path id="Path-3" d="M36.3 12.94 L37.6 12.94 C37.957 12.94 38.287 12.749 38.466 12.44 38.645 12.131 38.645 11.749 38.466 11.44 38.287 11.131 37.957 10.94 37.6 10.94 L36.3 10.94 C35.943 10.94 35.613 11.131 35.434 11.44 35.255 11.749 35.255 12.131 35.434 12.44 35.613 12.749 35.943 12.94 36.3 12.94 Z" fill="#FCFCFC" fill-opacity="1" stroke="none"/>
  <path id="Path-4" d="M23.8 16.94 L25.1 16.94 C25.457 16.94 25.787 16.749 25.966 16.44 26.145 16.131 26.145 15.749 25.966 15.44 25.787 15.131 25.457 14.94 25.1 14.94 L23.8 14.94 C23.443 14.94 23.113 15.131 22.934 15.44 22.755 15.749 22.755 16.131 22.934 16.44 23.113 16.749 23.443 16.94 23.8 16.94 Z" fill="#FCFCFC" fill-opacity="1" stroke="none"/>
  <path id="Path-5" d="M27.8 15.94 C27.8 16.492 28.248 16.94 28.8 16.94 L30.1 16.94 C30.457 16.94 30.787 16.749 30.966 16.44 31.145 16.131 31.145 15.749 30.966 15.44 30.787 15.131 30.457 14.94 30.1 14.94 L28.8 14.94 C28.535 14.94 28.28 15.045 28.093 15.233 27.905 15.42 27.8 15.675 27.8 15.94 Z" fill="#FCFCFC" fill-opacity="1" stroke="none"/>
  <path id="Path-6" d="M32.8 15.94 C32.8 16.492 33.248 16.94 33.8 16.94 L35.1 16.94 C35.457 16.94 35.787 16.749 35.966 16.44 36.145 16.131 36.145 15.749 35.966 15.44 35.787 15.131 35.457 14.94 35.1 14.94 L33.8 14.94 C33.535 14.94 33.28 15.045 33.093 15.233 32.905 15.42 32.8 15.675 32.8 15.94 Z" fill="#FCFCFC" fill-opacity="1" stroke="none"/>
  <path id="Path-7" d="M37.8 15.94 C37.8 16.492 38.248 16.94 38.8 16.94 L40.1 16.94 C40.457 16.94 40.787 16.749 40.966 16.44 41.145 16.131 41.145 15.749 40.966 15.44 40.787 15.131 40.457 14.94 40.1 14.94 L38.8 14.94 C38.535 14.94 38.28 15.045 38.093 15.233 37.905 15.42 37.8 15.675 37.8 15.94 Z" fill="#FCFCFC" fill-opacity="1" stroke="none"/>
  <path id="Path-8" d="M23.6 19.94 C23.6 19.675 23.495 19.42 23.307 19.233 23.12 19.045 22.865 18.94 22.6 18.94 L21.3 18.94 C20.943 18.94 20.613 19.131 20.434 19.44 20.255 19.749 20.255 20.131 20.434 20.44 20.613 20.749 20.943 20.94 21.3 20.94 L22.6 20.94 C22.865 20.94 23.12 20.835 23.307 20.647 23.495 20.46 23.6 20.205 23.6 19.94 Z" fill="#FCFCFC" fill-opacity="1" stroke="none"/>
  <path id="Path-9" d="M26.3 18.94 C25.943 18.94 25.613 19.131 25.434 19.44 25.255 19.749 25.255 20.131 25.434 20.44 25.613 20.749 25.943 20.94 26.3 20.94 L27.6 20.94 C27.957 20.94 28.287 20.749 28.466 20.44 28.645 20.131 28.645 19.749 28.466 19.44 28.287 19.131 27.957 18.94 27.6 18.94 Z" fill="#FCFCFC" fill-opacity="1" stroke="none"/>
  <path id="Path-10" d="M33.6 19.94 C33.6 19.675 33.495 19.42 33.307 19.233 33.12 19.045 32.865 18.94 32.6 18.94 L31.3 18.94 C30.943 18.94 30.613 19.131 30.434 19.44 30.255 19.749 30.255 20.131 30.434 20.44 30.613 20.749 30.943 20.94 31.3 20.94 L32.6 20.94 C32.865 20.94 33.12 20.835 33.307 20.647 33.495 20.46 33.6 20.205 33.6 19.94 Z" fill="#FCFCFC" fill-opacity="1" stroke="none"/>
  <path id="Path-11" d="M37.6 20.94 C37.957 20.94 38.287 20.749 38.466 20.44 38.645 20.131 38.645 19.749 38.466 19.44 38.287 19.131 37.957 18.94 37.6 18.94 L36.3 18.94 C35.943 18.94 35.613 19.131 35.434 19.44 35.255 19.749 35.255 20.131 35.434 20.44 35.613 20.749 35.943 20.94 36.3 20.94 Z" fill="#FCFCFC" fill-opacity="1" stroke="none"/>
  <path id="Path-12" d="M40.3 19.94 C40.3 20.205 40.405 20.46 40.593 20.647 40.78 20.835 41.035 20.94 41.3 20.94 L42.6 20.94 C42.957 20.94 43.287 20.749 43.466 20.44 43.645 20.131 43.645 19.749 43.466 19.44 43.287 19.131 42.957 18.94 42.6 18.94 L41.3 18.94 C41.035 18.94 40.78 19.045 40.593 19.233 40.405 19.42 40.3 19.675 40.3 19.94 Z" fill="#FCFCFC" fill-opacity="1" stroke="none"/>
  <path id="Path-13" d="M26.1 23.94 C26.1 23.675 25.995 23.42 25.807 23.233 25.62 23.045 25.365 22.94 25.1 22.94 L23.8 22.94 C23.443 22.94 23.113 23.131 22.934 23.44 22.755 23.749 22.755 24.131 22.934 24.44 23.113 24.749 23.443 24.94 23.8 24.94 L25.1 24.94 C25.365 24.94 25.62 24.835 25.807 24.647 25.995 24.46 26.1 24.205 26.1 23.94 Z" fill="#FCFCFC" fill-opacity="1" stroke="none"/>
  <path id="Path-14" d="M31.1 23.94 C31.1 23.675 30.995 23.42 30.807 23.233 30.62 23.045 30.365 22.94 30.1 22.94 L28.8 22.94 C28.443 22.94 28.113 23.131 27.934 23.44 27.755 23.749 27.755 24.131 27.934 24.44 28.113 24.749 28.443 24.94 28.8 24.94 L30.1 24.94 C30.365 24.94 30.62 24.835 30.807 24.647 30.995 24.46 31.1 24.205 31.1 23.94 Z" fill="#FCFCFC" fill-opacity="1" stroke="none"/>
  <path id="Path-15" d="M36.1 23.94 C36.1 23.675 35.995 23.42 35.807 23.233 35.62 23.045 35.365 22.94 35.1 22.94 L33.8 22.94 C33.443 22.94 33.113 23.131 32.934 23.44 32.755 23.749 32.755 24.131 32.934 24.44 33.113 24.749 33.443 24.94 33.8 24.94 L35.1 24.94 C35.365 24.94 35.62 24.835 35.807 24.647 35.995 24.46 36.1 24.205 36.1 23.94 Z" fill="#FCFCFC" fill-opacity="1" stroke="none"/>
  <path id="Path-16" d="M40.1 22.94 L38.8 22.94 C38.443 22.94 38.113 23.131 37.934 23.44 37.755 23.749 37.755 24.131 37.934 24.44 38.113 24.749 38.443 24.94 38.8 24.94 L40.1 24.94 C40.457 24.94 40.787 24.749 40.966 24.44 41.145 24.131 41.145 23.749 40.966 23.44 40.787 23.131 40.457 22.94 40.1 22.94 Z" fill="#FCFCFC" fill-opacity="1" stroke="none"/>
  <path id="Path-17" d="M27.6 26.94 L26.3 26.94 C25.943 26.94 25.613 27.131 25.434 27.44 25.255 27.749 25.255 28.131 25.434 28.44 25.613 28.749 25.943 28.94 26.3 28.94 L27.6 28.94 C27.957 28.94 28.287 28.749 28.466 28.44 28.645 28.131 28.645 27.749 28.466 27.44 28.287 27.131 27.957 26.94 27.6 26.94 Z" fill="#FCFCFC" fill-opacity="1" stroke="none"/>
  <path id="Path-18" d="M33.6 27.94 C33.6 27.675 33.495 27.42 33.307 27.233 33.12 27.045 32.865 26.94 32.6 26.94 L31.3 26.94 C30.943 26.94 30.613 27.131 30.434 27.44 30.255 27.749 30.255 28.131 30.434 28.44 30.613 28.749 30.943 28.94 31.3 28.94 L32.6 28.94 C32.865 28.94 33.12 28.835 33.307 28.647 33.495 28.46 33.6 28.205 33.6 27.94 Z" fill="#FCFCFC" fill-opacity="1" stroke="none"/>
  <path id="Path-19" d="M37.6 26.94 L36.3 26.94 C35.943 26.94 35.613 27.131 35.434 27.44 35.255 27.749 35.255 28.131 35.434 28.44 35.613 28.749 35.943 28.94 36.3 28.94 L37.6 28.94 C37.957 28.94 38.287 28.749 38.466 28.44 38.645 28.131 38.645 27.749 38.466 27.44 38.287 27.131 37.957 26.94 37.6 26.94 Z" fill="#FCFCFC" fill-opacity="1" stroke="none"/>
  <path id="Path-20" d="M38.5 54.5 L45.174 54.5 C45.531 54.5 45.861 54.309 46.04 54 46.219 53.691 46.219 53.309 46.04 53 45.861 52.691 45.531 52.5 45.174 52.5 L38.5 52.5 C38.143 52.5 37.813 52.691 37.634 53 37.455 53.309 37.455 53.691 37.634 54 37.813 54.309 38.143 54.5 38.5 54.5 Z" fill="#FCFCFC" fill-opacity="1" stroke="none"/>
  <path id="Path-21" d="M25.391 52.5 L18.716 52.5 C18.359 52.5 18.029 52.691 17.85 53 17.671 53.309 17.671 53.691 17.85 54 18.029 54.309 18.359 54.5 18.716 54.5 L25.391 54.5 C25.748 54.5 26.078 54.309 26.257 54 26.436 53.691 26.436 53.309 26.257 53 26.078 52.691 25.748 52.5 25.391 52.5 Z" fill="#FCFCFC" fill-opacity="1" stroke="none"/>
 </g>
</svg>
