<?xml version="1.0" encoding="UTF-8"?>
<svg width="60px" height="59px" viewBox="0 0 60 59" xmlns="http://www.w3.org/2000/svg" xmlns:xlink="http://www.w3.org/1999/xlink" version="1.1">
 <!-- Generated by Pixelmator Pro 2.2 -->
 <g id="group">
  <g id="group-1">
   <path id="Path" d="M44.91 38.36 C44.684 38.359 44.466 38.281 44.29 38.14 38.68 33.65 35.02 23.14 35.59 19.87 35.636 19.162 36.089 18.546 36.75 18.29 40.233 17.092 43.164 14.673 45 11.48 46.311 9.236 47.033 6.698 47.1 4.1 45.391 6.043 42.917 7.139 40.33 7.1 39.659 7.062 38.992 6.985 38.33 6.87 37.583 6.718 36.822 6.651 36.06 6.67 33.854 6.953 32.03 8.528 31.43 10.67 31.434 10.696 31.434 10.724 31.43 10.75 31.339 11.302 30.817 11.676 30.265 11.585 29.713 11.494 29.339 10.972 29.43 10.42 L29.43 10.34 C29.609 9.752 29.482 9.114 29.09 8.64 27.82 7.29 23.76 7.64 21.09 7.96 19.937 8.155 18.763 8.196 17.6 8.08 15.475 7.679 13.603 6.434 12.41 4.63 11.591 7.256 11.714 10.086 12.76 12.63 14.76 17.5 18.88 18.69 22.84 19.84 25.98 20.75 28.94 21.62 30.22 24.37 31.5 27.12 30.79 31.17 28.08 37.29 27.957 37.648 27.643 37.906 27.268 37.957 26.893 38.008 26.521 37.842 26.308 37.53 26.095 37.217 26.076 36.811 26.26 36.48 28.68 31 29.38 27.31 28.41 25.22 27.51 23.29 25.08 22.58 22.28 21.76 18.28 20.6 13.28 19.15 10.91 13.4 9.271 9.394 9.608 4.851 11.82 1.13 12.057 0.719 12.55 0.531 13 0.68 13.433 0.816 13.721 1.226 13.7 1.68 13.56 3.96 15.78 5.68 18.05 6.13 19.009 6.179 19.97 6.135 20.92 6 24.38 5.66 28.67 5.23 30.61 7.31 L30.82 7.55 C32.074 5.912 33.948 4.863 36 4.65 36.912 4.621 37.825 4.694 38.72 4.87 39.292 4.977 39.869 5.047 40.45 5.08 43.299 5.103 45.857 3.34 46.85 0.67 46.997 0.249 47.405 -0.025 47.85 0 48.3 0.026 48.676 0.35 48.77 0.79 49.554 4.804 48.82 8.966 46.71 12.47 44.665 16.026 41.422 18.737 37.56 20.12 36.95 21.87 40.13 32.26 45.56 36.58 45.892 36.846 46.019 37.293 45.877 37.694 45.735 38.095 45.355 38.362 44.93 38.36 Z" fill="#000000" fill-opacity="1" stroke="none"/>
   <path id="Path-1" d="M50.76 39.73 C49.501 39.73 48.262 39.421 47.15 38.83 46.114 38.284 44.876 38.284 43.84 38.83 43.568 38.979 43.287 39.113 43 39.23 40.884 40.039 38.52 39.882 36.53 38.8 35.453 38.273 34.184 38.31 33.14 38.9 30.945 40.037 28.335 40.037 26.14 38.9 25.099 38.31 23.834 38.273 22.76 38.8 20.628 39.956 18.077 40.045 15.87 39.04 L15.47 38.85 C14.499 38.267 13.295 38.229 12.29 38.75 10.068 39.986 7.381 40.053 5.1 38.93 3.937 38.34 2.563 38.34 1.4 38.93 0.913 39.148 0.341 38.945 0.1 38.47 -0.017 38.231 -0.035 37.956 0.052 37.704 0.138 37.453 0.321 37.246 0.56 37.13 2.28 36.26 4.31 36.26 6.03 37.13 7.719 37.97 9.714 37.921 11.36 37 12.947 36.145 14.863 36.167 16.43 37.06 L16.77 37.23 C18.398 37.962 20.275 37.888 21.84 37.03 23.496 36.191 25.46 36.221 27.09 37.11 27.851 37.494 28.688 37.706 29.54 37.73 30.476 37.74 31.402 37.527 32.24 37.11 33.865 36.211 35.829 36.17 37.49 37 38.962 37.792 40.705 37.908 42.27 37.32 42.481 37.234 42.688 37.137 42.89 37.03 44.517 36.17 46.463 36.17 48.09 37.03 49.775 37.91 51.785 37.91 53.47 37.03 55.014 36.146 56.905 36.123 58.47 36.97 58.95 37.246 59.116 37.859 58.84 38.34 58.564 38.82 57.95 38.986 57.47 38.71 56.494 38.191 55.318 38.221 54.37 38.79 53.26 39.39 52.022 39.712 50.76 39.73 Z" fill="#000000" fill-opacity="1" stroke="none"/>
   <path id="Path-2" d="M31.07 47 C29.861 46.999 28.669 46.714 27.59 46.17 26.55 45.579 25.286 45.538 24.21 46.06 21.924 47.285 19.176 47.285 16.89 46.06 15.924 45.498 14.737 45.476 13.75 46 12.607 46.651 11.315 46.995 10 47 9.448 47 9 46.552 9 46 9 45.448 9.448 45 10 45 10.977 44.996 11.937 44.745 12.79 44.27 14.377 43.415 16.293 43.437 17.86 44.33 19.548 45.24 21.582 45.24 23.27 44.33 24.927 43.489 26.893 43.522 28.52 44.42 30.139 45.24 32.051 45.24 33.67 44.42 35.3 43.531 37.264 43.501 38.92 44.34 40.608 45.25 42.642 45.25 44.33 44.34 45.954 43.485 47.896 43.485 49.52 44.34 50.009 44.597 50.197 45.201 49.94 45.69 49.815 45.926 49.601 46.101 49.345 46.178 49.09 46.255 48.814 46.227 48.58 46.1 47.548 45.554 46.312 45.554 45.28 46.1 42.995 47.33 40.245 47.33 37.96 46.1 36.879 45.581 35.612 45.625 34.57 46.22 33.481 46.752 32.282 47.019 31.07 47 Z" fill="#000000" fill-opacity="1" stroke="none"/>
   <path id="Path-3" d="M8.34 31.08 C8.254 31.095 8.166 31.095 8.08 31.08 7.548 30.938 7.23 30.393 7.37 29.86 7.666 28.684 7.412 27.437 6.68 26.47 5.917 25.539 4.783 24.991 3.58 24.97 3.028 24.97 2.58 24.522 2.58 23.97 2.58 23.418 3.028 22.97 3.58 22.97 5.408 22.971 7.132 23.821 8.246 25.27 9.36 26.719 9.739 28.603 9.27 30.37 9.145 30.782 8.771 31.068 8.34 31.08 Z" fill="#000000" fill-opacity="1" stroke="none"/>
   <path id="Path-4" d="M16.56 30.89 C16.392 30.891 16.227 30.85 16.08 30.77 15.848 30.641 15.676 30.426 15.603 30.171 15.53 29.916 15.561 29.642 15.69 29.41 15.864 29.057 15.864 28.643 15.69 28.29 15.537 27.925 15.217 27.656 14.83 27.57 14.278 27.479 13.904 26.957 13.995 26.405 14.087 25.853 14.608 25.479 15.161 25.57 16.178 25.786 17.039 26.461 17.492 27.397 17.946 28.334 17.941 29.427 17.48 30.36 17.3 30.698 16.943 30.904 16.56 30.89 Z" fill="#000000" fill-opacity="1" stroke="none"/>
   <path id="Path-5" d="M54.51 26.85 C54.238 26.849 53.978 26.737 53.79 26.54 52.509 25.222 51.918 23.38 52.192 21.563 52.467 19.745 53.576 18.16 55.19 17.28 55.673 17.004 56.289 17.172 56.565 17.655 56.841 18.138 56.673 18.754 56.19 19.03 55.122 19.611 54.389 20.659 54.208 21.861 54.027 23.063 54.42 24.281 55.27 25.15 55.658 25.54 55.658 26.17 55.27 26.56 55.069 26.76 54.793 26.865 54.51 26.85 Z" fill="#000000" fill-opacity="1" stroke="none"/>
   <path id="Path-6" d="M47.24 30.71 C47.056 30.709 46.876 30.657 46.72 30.56 45.862 29.972 45.324 29.021 45.262 27.983 45.199 26.945 45.619 25.937 46.4 25.25 46.831 24.91 47.457 24.981 47.8 25.41 48.143 25.839 48.076 26.464 47.65 26.81 47.371 27.087 47.225 27.47 47.248 27.862 47.271 28.254 47.461 28.618 47.77 28.86 48.15 29.096 48.328 29.555 48.205 29.985 48.081 30.416 47.687 30.711 47.24 30.71 Z" fill="#000000" fill-opacity="1" stroke="none"/>
  </g>
 </g>
</svg>
