<?xml version="1.0" encoding="UTF-8"?>
<svg width="48px" height="60px" viewBox="0 0 48 60" xmlns="http://www.w3.org/2000/svg" xmlns:xlink="http://www.w3.org/1999/xlink" version="1.1">
 <!-- Generated by Pixelmator Pro 2.2 -->
 <path id="Path" d="M18.38 35 C18.265 35.422 18.326 35.872 18.548 36.249 18.77 36.626 19.135 36.897 19.56 37 19.706 37.019 19.854 37.019 20 37 20.745 37.003 21.394 36.494 21.57 35.77 L22.85 30.66 20.13 28 Z" fill="#000000" fill-opacity="1" stroke="none"/>
 <path id="Path-1" d="M19.13 25 L21.22 17 C21.283 16.786 21.253 16.555 21.137 16.365 21.021 16.174 20.829 16.042 20.61 16 18.438 15.467 16.232 16.742 15.61 18.89 L14.34 23.89 C14.27 24.103 14.296 24.335 14.411 24.527 14.526 24.719 14.719 24.852 14.94 24.89 L18.16 25.67 C18.595 25.773 19.034 25.518 19.16 25.09 Z" fill="#000000" fill-opacity="1" stroke="none"/>
 <path id="Path-2" d="M32.91 19.14 L32.1 19.14 C31.653 19.14 31.29 19.503 31.29 19.95 L31.29 20.76 29.53 20.76 27.16 18.39 C26.397 17.642 25.293 17.357 24.263 17.642 23.233 17.926 22.432 18.737 22.16 19.77 L20.8 25.23 C20.66 25.783 20.824 26.369 21.23 26.77 L25.61 31.15 25.61 35.34 C25.61 36.234 26.336 36.959 27.23 36.959 28.124 36.959 28.85 36.234 28.85 35.34 L28.85 31.15 C28.851 30.291 28.509 29.467 27.9 28.86 L25.53 26.49 C25.53 26.49 25.53 26.49 25.53 26.42 L26.53 22.42 27.66 23.56 C27.967 23.861 28.38 24.029 28.81 24.03 L31.24 24.03 31.24 36.15 C31.24 36.597 31.603 36.96 32.05 36.96 L32.86 36.96 C33.307 36.96 33.67 36.597 33.67 36.15 L33.67 20 C33.67 19.785 33.585 19.579 33.433 19.427 33.281 19.275 33.075 19.19 32.86 19.19 Z" fill="#000000" fill-opacity="1" stroke="none"/>
 <path id="Path-3" d="M28.86 13.47 C28.86 14.812 27.772 15.9 26.43 15.9 25.088 15.9 24 14.812 24 13.47 24 12.128 25.088 11.04 26.43 11.04 27.772 11.04 28.86 12.128 28.86 13.47 Z" fill="#000000" fill-opacity="1" stroke="none"/>
</svg>
