<?xml version="1.0" encoding="UTF-8"?>
<svg width="64px" height="80px" viewBox="0 0 64 80" xmlns="http://www.w3.org/2000/svg" xmlns:xlink="http://www.w3.org/1999/xlink" version="1.1">
 <!-- Generated by Pixelmator Pro 2.2 -->
 <path id="Path" d="M36 40 C43.198 39.991 49.217 34.525 49.917 27.361 50.616 20.197 45.769 13.67 38.709 12.268 38.899 11.872 38.998 11.439 39 11 39 9.928 38.428 8.938 37.5 8.402 36.572 7.866 35.428 7.866 34.5 8.402 33.572 8.938 33 9.928 33 11 33.002 11.439 33.101 11.872 33.291 12.268 26.231 13.67 21.384 20.197 22.083 27.361 22.783 34.525 28.802 39.991 36 40 Z M35 11 C35 10.596 35.244 10.231 35.617 10.076 35.991 9.921 36.421 10.007 36.707 10.293 36.993 10.579 37.079 11.009 36.924 11.383 36.769 11.756 36.404 12 36 12 35.735 12 35.48 11.895 35.293 11.707 35.105 11.52 35 11.265 35 11 Z M36 14 C40.854 14 45.229 16.924 47.087 21.408 48.944 25.892 47.917 31.053 44.485 34.485 41.053 37.917 35.892 38.944 31.408 37.087 26.924 35.229 24 30.854 24 26 24.007 19.376 29.375 14.007 35.999 14 Z" fill="#FCFCFC" fill-opacity="1" stroke="none"/>
 <path id="Path-1" d="M36 36 C40.045 36 43.691 33.564 45.239 29.827 46.787 26.09 45.931 21.789 43.071 18.929 40.211 16.069 35.91 15.213 32.173 16.761 28.436 18.309 26 21.955 26 26 26.006 31.52 30.48 35.994 36 36 Z M35 18.069 L35 20 37 20 37 18.069 C40.62 18.53 43.47 21.38 43.931 25 L42 25 42 27 43.931 27 C43.47 30.62 40.62 33.47 37 33.931 L37 32 35 32 35 33.931 C31.38 33.47 28.53 30.62 28.069 27 L30 27 30 25 28.069 25 C28.53 21.38 31.38 18.53 35 18.069 Z" fill="#FCFCFC" fill-opacity="1" stroke="none"/>
 <path id="Path-2" d="M35.1 30.447 C35.27 30.788 35.619 31.002 36 31 36.376 31 36.72 30.79 36.891 30.455 L38.733 26.847 C38.867 26.585 38.879 26.277 38.765 26.005 L36.922 21.613 C36.771 21.252 36.423 21.013 36.033 21 35.642 20.987 35.28 21.203 35.105 21.553 L33.105 25.553 C32.964 25.834 32.964 26.166 33.105 26.447 Z M35.916 24.396 L36.736 26.351 36.005 27.783 35.118 26 Z" fill="#FCFCFC" fill-opacity="1" stroke="none"/>
 <path id="Path-3" d="M48 10 L50 10 50 6 C50 5.735 49.895 5.48 49.707 5.293 49.52 5.105 49.265 5 49 5 L45 5 45 7 48 7 Z" fill="#FCFCFC" fill-opacity="1" stroke="none"/>
 <path id="Path-4" d="M24 7 L27 7 27 5 23 5 C22.735 5 22.48 5.105 22.293 5.293 22.105 5.48 22 5.735 22 6 L22 10 24 10 Z" fill="#FCFCFC" fill-opacity="1" stroke="none"/>
 <path id="Path-5" d="M48 41 L45 41 45 43 49 43 C49.265 43 49.52 42.895 49.707 42.707 49.895 42.52 50 42.265 50 42 L50 38 48 38 Z" fill="#FCFCFC" fill-opacity="1" stroke="none"/>
 <path id="Path-6" d="M23 43 L27 43 27 41 24 41 24 38 22 38 22 42 C22 42.265 22.105 42.52 22.293 42.707 22.48 42.895 22.735 43 23 43 Z" fill="#FCFCFC" fill-opacity="1" stroke="none"/>
 <path id="Path-7" d="M48 12 L50 12 50 14 48 14 Z" fill="#FCFCFC" fill-opacity="1" stroke="none"/>
 <path id="Path-8" d="M53.9 46.447 C53.967 46.308 54.002 46.155 54 46 L54 2 C54 1.735 53.895 1.48 53.707 1.293 53.52 1.105 53.265 1 53 1 L17 1 C13.136 1.005 10.005 4.136 10 8 L10 52 C10.005 55.864 13.136 58.995 17 59 L36 59 36 62 C36 62.404 36.244 62.769 36.617 62.924 36.991 63.078 37.421 62.993 37.707 62.707 L41 59.414 44.293 62.707 C44.48 62.895 44.735 63 45 63 45.131 63 45.262 62.975 45.383 62.924 45.757 62.769 46 62.404 46 62 L46 59 53 59 C53.348 59.002 53.671 58.823 53.855 58.528 54.038 58.233 54.055 57.864 53.9 57.553 L52.794 55.342 C51.742 53.238 51.742 50.762 52.794 48.658 Z M52 45 L20 45 20 3 52 3 Z M12 8 C12.003 5.24 14.24 3.003 17 3 L18 3 18 45 17 45 C15.117 45 13.313 45.761 12 47.111 Z M17 57 C14.239 57 12 54.761 12 52 12 49.239 14.239 47 17 47 L51.382 47 51 47.764 C50.804 48.164 50.637 48.577 50.5 49 L17 49 C15.928 49 14.938 49.572 14.402 50.5 13.866 51.428 13.866 52.572 14.402 53.5 14.938 54.428 15.928 55 17 55 L36 55 36 57 Z M50.059 53 L46 53 46 51 50.059 51 C49.98 51.664 49.98 52.336 50.059 53 Z M36 51 L36 53 17 53 C16.448 53 16 52.552 16 52 16 51.448 16.448 51 17 51 Z M41.707 57.293 C41.317 56.903 40.683 56.903 40.293 57.293 L38 59.586 38 51 44 51 44 59.586 Z M46 57 L46 55 50.5 55 C50.637 55.423 50.804 55.836 51 56.236 L51.382 57 Z" fill="#FCFCFC" fill-opacity="1" stroke="none"/>
</svg>
