<?xml version="1.0" encoding="UTF-8"?>
<svg width="40px" height="50px" viewBox="0 0 40 50" xmlns="http://www.w3.org/2000/svg" xmlns:xlink="http://www.w3.org/1999/xlink" version="1.1">
 <!-- Generated by Pixelmator Pro 2.2 -->
 <path id="Path" d="M35.608 2.989 C32.477 1.188 25.94 4.471 25.542 4.675 23.192 3.8 20.446 4.3 18.56 6.189 17.997 6.75 17.562 7.39 17.247 8.072 21.821 5.861 24.481 10.584 24.481 10.584 19.369 10 16.443 9.385 15.71 9.222 14.053 9.246 12.402 9.875 11.139 11.139 9.802 12.476 9.166 14.244 9.217 15.996 13.781 12.898 17.02 17.631 17.02 17.631 12.413 17.509 9.551 17.209 8.469 17.076 7.637 17.396 6.858 17.887 6.188 18.556 4.512 20.234 3.931 22.586 4.434 24.736 8.415 20.759 12.479 24.912 12.479 24.912 8.569 25.497 5.905 25.728 4.538 25.818 3.887 27.167 1.361 32.778 2.989 35.606 6.235 41.249 16.542 33.626 25.085 25.084 33.627 16.542 41.25 6.235 35.608 2.989 Z" fill="#FCFCFC" fill-opacity="1" stroke="none"/>
</svg>
