<?xml version="1.0" encoding="UTF-8"?>
<svg width="596px" height="762px" viewBox="0 0 596 762" xmlns="http://www.w3.org/2000/svg" xmlns:xlink="http://www.w3.org/1999/xlink" version="1.1">
 <!-- Generated by Pixelmator Pro 2.2 -->
 <g id="group">
  <g id="group-1">
   <path id="Path" d="M432.3 314.1 C430.3 314.1 428.3 312.9 427.5 311 426.3 308.3 427.5 305.2 430.1 304 433.1 302.6 436.5 300.5 440.1 298.2 443.8 295.9 447.6 293.5 451.7 291.4 472.1 281.2 493.3 279 501.3 278.2 517.6 276.5 531.5 281 540.2 285.1 542.9 286.3 544 289.5 542.8 292.2 541.6 294.9 538.4 296 535.7 294.8 528.2 291.3 516.2 287.4 502.4 288.8 489.7 290.1 473 292.7 456.4 301 452.7 302.8 449.1 305.1 445.7 307.3 441.8 309.8 438.1 312.1 434.4 313.8 433.8 314 433.1 314.1 432.3 314.1 Z" fill="#FCFCFC" fill-opacity="1" stroke="none"/>
   <path id="Path-1" d="M162.6 313 C161.9 313 161.1 312.8 160.4 312.5 156.7 310.8 153 308.5 149.1 306 145.6 303.8 142.1 301.6 138.4 299.7 121.8 291.4 105.1 288.8 92.4 287.5 78.5 286.1 66.6 290 59.1 293.5 56.4 294.7 53.3 293.6 52 290.9 50.8 288.2 51.9 285.1 54.6 283.8 63.4 279.7 77.2 275.2 93.5 276.9 101.5 277.7 122.7 279.9 143.1 290.1 147.2 292.2 151.1 294.6 154.7 296.9 158.3 299.2 161.7 301.3 164.7 302.7 167.4 303.9 168.6 307.1 167.3 309.7 166.6 311.9 164.6 313 162.6 313 Z" fill="#FCFCFC" fill-opacity="1" stroke="none"/>
   <path id="Path-2" d="M519.3 375.8 C492.4 361.8 508 334.7 490 334.7 L489.9 334.7 489.8 334.7 C471.8 334.7 487.4 361.9 460.5 375.8 456.8 377.7 453 379.2 453 383.3 L453 420.1 C453 424.2 456.4 427.6 460.5 427.6 L489.6 427.6 490.1 427.6 519.2 427.6 C523.3 427.6 526.7 424.2 526.7 420.1 L526.7 383.3 C526.8 379.1 523 377.7 519.3 375.8 Z" fill="#FCFCFC" fill-opacity="1" stroke="none"/>
   <g id="group-2">
    <path id="Path-3" d="M411.1 343 L405.1 406.9 C404 418.2 401.3 436.1 398.7 453.4 396.1 471 393.3 489.2 392.2 501.1 391 513.4 391.5 525.3 391.9 536.8 392.3 548.1 392.7 558.8 391.7 569.7 391 576.4 389 582.8 385.7 588.7 382.6 594.4 378.4 599.5 373.3 603.8 372.2 604.8 371 605.7 369.8 606.5 368.5 604.8 366.1 603.3 363 602 356.7 599.5 353.5 593.3 356 587.7 357.3 584.7 358.4 574.4 358.4 571 358.4 555.7 343.2 543.3 324.6 543.3 321.2 543.3 317.9 543.7 314.8 544.5 305.3 546.9 295.2 546.9 285.7 544.5 282.6 543.7 279.3 543.3 275.9 543.3 257.2 543.3 242.1 555.7 242.1 571 242.1 574.4 242.5 584.6 243.9 587.6 246.4 593.1 243.5 599.5 237.3 602 232.9 603.8 230.1 606.1 229.6 608.6 227 607.1 224.5 605.3 222.2 603.3 217.1 599 212.9 593.9 209.7 588.2 206.5 582.3 204.4 575.9 203.7 569.2 202.7 558.4 203.1 547.7 203.5 536.4 203.9 524.9 204.4 512.9 203.2 500.7 202.1 488.9 199.3 470.6 196.7 453 194.1 435.7 191.4 417.7 190.3 406.5 L184.3 342.6 170.1 350.4 C159.3 356.3 146.1 359.8 132.1 360.4 133.5 366.9 135.8 372.5 144.1 376.8 144.4 377 144.8 377.1 145.1 377.3 146.3 377.9 147.8 378.7 149.4 379.8 155.1 378.7 160.7 377.3 166 375.4 L169.1 408.5 C170.2 420.3 173 438.6 175.6 456.2 178.2 473.5 180.9 491.5 181.9 502.7 182.9 513.6 182.5 524.3 182.1 535.6 181.7 547.1 181.2 559.1 182.4 571.3 L182.4 571.4 C183.4 580.9 186.2 590 190.9 598.4 195.3 606.4 201.2 613.6 208.3 619.6 215.4 625.5 223.4 630.1 232.1 633.2 241.1 636.4 250.4 637.8 259.9 637.5 264 637.4 267.7 636.3 270.9 635.3 273 634.7 275.1 634 276.4 634 279.7 634 282.7 633.6 285.7 633.2 288 632.9 290.1 632.6 292.1 632.6 L303.3 632.9 C305.3 633 307.6 633.2 309.9 633.5 312.8 633.9 315.9 634.3 319.2 634.3 320.5 634.3 322.7 635 324.7 635.6 327.9 636.6 331.5 637.7 335.7 637.8 L338.2 637.8 C346.8 637.8 355.3 636.3 363.5 633.4 372.2 630.3 380.2 625.8 387.3 619.8 394.5 613.8 400.3 606.7 404.7 598.6 409.3 590.2 412.2 581.1 413.2 571.5 L413.2 571.4 C414.4 559.1 413.9 547.2 413.5 535.7 413.1 524.4 412.7 513.7 413.7 502.8 414.8 491.5 417.5 473.6 420.1 456.3 422.7 438.7 425.5 420.5 426.6 408.6 L429.7 375.5 C434 377 438.5 378.3 443.2 379.3 444.9 371.8 451.6 368.4 455 366.6 455.3 366.4 455.7 366.3 456 366.1 459.2 364.4 461.5 362.6 463.2 360.5 449.4 359.8 436.3 356.4 425.6 350.5 Z M346.6 561.9 C348.9 561.9 342.8 588.7 341.9 590.6 339.3 596.3 331.6 601.1 324.9 596.8 320 591.2 323.1 583.1 329 580.2 337.7 575.9 344.1 561.9 346.6 561.9 Z M301 553.1 C316 553.1 328.2 548 328.2 552.4 328.2 553.7 313.4 560.6 301 560.6 289.1 560.6 273.8 554 273.8 552.4 273.8 547.6 286 553.1 301 553.1 Z M254.4 561.9 C256.9 561.9 263.3 575.9 271.9 580.2 277.8 583.1 280.9 591.2 276 596.8 269.4 601 261.7 596.3 259 590.6 258.2 588.7 252.1 561.9 254.4 561.9 Z" fill="#FCFCFC" fill-opacity="1" stroke="none"/>
    <path id="Path-4" d="M581.7 286.3 C581.1 276.9 573.3 268.5 566.9 263.1 552.4 250.8 526.7 238.8 498 241.7 488.2 242.7 462.3 245.4 437.1 258 431.9 260.6 427.1 263.6 422.8 266.3 417 269.9 410.5 274 406.7 274.4 404.7 272.5 401 265.4 397.7 259.1 L396.7 257.2 C390.5 245.3 381.3 230.2 365.4 219.6 349.7 209.2 329.4 204.1 303.3 204.1 303 204.1 302.4 204.1 301.5 204 298.7 203.9 294.5 203.8 292.1 203.8 266 203.8 245.6 208.9 229.9 219.3 214.1 229.9 205.2 244.3 198.6 256.9 L197.6 258.8 C194.3 265.1 190.6 272.2 188.6 274.1 184.8 273.7 178.3 269.6 172.5 266 168.2 263.3 163.4 260.2 158.2 257.7 133 245.1 107.1 242.4 97.3 241.4 68.6 238.4 42.9 250.5 28.4 262.8 22 268.2 14.2 276.7 13.6 286 13.1 294.4 14.4 305.1 17.1 313.1 L17.4 313.8 C17.7 314.5 18 315.4 18.4 316.4 19.7 319.8 21.3 324.1 23 327.1 L23.1 327.3 C36.4 349.7 55.3 365.1 80.3 373.8 86 369.1 87.1 363.2 88.4 356.6 88.6 355.8 88.7 355 88.9 354.2 61.6 345.1 48.9 329 41.5 316.5 40.6 314.9 39.2 311.2 38.4 308.9 38 307.8 37.6 306.9 37.3 306.1 35.6 300.8 34.6 293.1 34.9 287.6 35.5 285.6 40.8 278.4 53.2 271.6 60.9 267.4 76.5 260.7 95.2 262.6 110 264.1 129.5 267.1 148.8 276.7 153 278.8 157.2 281.5 161.3 284 170.8 290 179.8 295.7 190 295.4 202.9 295 208.6 284 216.6 268.6 L217.6 266.7 C229.1 244.7 243.4 225 292.2 225 294.2 225 298.6 225.1 300.9 225.2 302.2 225.2 303.1 225.3 303.3 225.3 352.1 225.3 366.5 245 377.9 267 L378.9 268.9 C386.9 284.2 392.7 295.3 405.5 295.7 415.7 296 424.6 290.3 434.2 284.3 438.3 281.7 442.5 279.1 446.7 277 465.9 267.4 485.4 264.4 500.3 262.9 519 261 534.7 267.7 542.3 271.9 554.7 278.7 560 285.9 560.6 287.9 560.9 293.4 559.9 301.1 558.2 306.4 557.9 307.2 557.5 308.1 557.1 309.2 556.3 311.5 554.9 315.2 554 316.8 547.2 328.3 535.9 342.9 512.8 352.2 514.3 357.7 517 362.5 524.2 366.3 524.5 366.5 524.9 366.6 525.2 366.8 526.1 367.2 527.2 367.8 528.4 368.5 546.9 359.4 561.4 345.8 572.3 327.5 L572.4 327.3 C574.1 324.3 575.7 320.1 577 316.6 577.4 315.6 577.7 314.6 578 314 L578.3 313.3 C580.9 305.4 582.2 294.7 581.7 286.3 Z" fill="#FCFCFC" fill-opacity="1" stroke="none"/>
   </g>
   <path id="Path-5" d="M139.1 386.3 C112.2 372.3 127.8 345.2 109.8 345.2 L109.7 345.2 109.6 345.2 C91.6 345.2 107.2 372.4 80.3 386.3 76.6 388.2 72.8 389.7 72.8 393.8 L72.8 430.6 C72.8 434.7 76.2 438.1 80.3 438.1 L109.4 438.1 109.9 438.1 139 438.1 C143.1 438.1 146.5 434.7 146.5 430.6 L146.5 393.8 C146.7 389.7 142.8 388.2 139.1 386.3 Z" fill="#FCFCFC" fill-opacity="1" stroke="none"/>
   <path id="Path-6" d="M258.9 532.3 C258.8 532.3 258.7 532.3 258.7 532.3 255.8 532.2 253.5 529.7 253.6 526.8 254.1 514.4 254 504.8 244.7 451.2 241.6 433.3 244.7 418.3 248 402.4 250.5 390.2 253.1 377.5 252.8 362.9 252.5 350.2 246.4 339.8 240 328.7 237.3 324.1 234.5 319.3 232.2 314.3 230.9 311.6 232.1 308.5 234.7 307.2 237.4 305.9 240.5 307.1 241.8 309.7 244 314.3 246.5 318.6 249.2 323.2 256.1 334.9 263.1 347.1 263.5 362.5 263.8 378.3 261.1 391.6 258.5 404.4 255.4 419.3 252.5 433.3 255.3 449.2 264.8 503.9 264.9 513.9 264.4 527.1 264.1 530.1 261.7 532.3 258.9 532.3 Z" fill="#FCFCFC" fill-opacity="1" stroke="none"/>
   <path id="Path-7" d="M337.1 532.3 C334.3 532.3 331.9 530.1 331.8 527.2 331.2 514.1 331.4 504 340.9 449.3 343.7 433.3 340.8 419.3 337.7 404.5 335.1 391.7 332.3 378.4 332.7 362.6 333 347.2 340.1 335 347 323.3 349.7 318.7 352.2 314.3 354.4 309.8 355.7 307.1 358.8 306 361.5 307.3 364.2 308.6 365.3 311.7 364 314.4 361.7 319.4 358.9 324.1 356.2 328.8 349.7 339.9 343.6 350.3 343.4 363 343.1 377.6 345.7 390.3 348.2 402.5 351.5 418.4 354.6 433.4 351.5 451.3 342.2 504.9 342.1 514.5 342.6 526.9 342.7 529.8 340.4 532.3 337.5 532.4 337.3 532.3 337.2 532.3 337.1 532.3 Z" fill="#FCFCFC" fill-opacity="1" stroke="none"/>
   <path id="Path-8" d="M394.8 355 C386.7 354.5 379.4 359.9 376.7 362.3 370.5 367.7 366 373.7 361.7 382.5 359.7 386.1 357.6 390.7 356.2 394.6 355.5 396.4 355.7 398.4 356.7 400.1 357.7 401.8 359.3 403 361.2 403.3 365.6 404.1 370.8 404.4 374.2 404.5 L374.4 404.5 374.9 404.5 C384 404.5 398.9 400.7 401.4 376.6 402 370.7 402.1 368.7 402.2 363.6 L402.2 363 C402.2 358.8 399 355.2 394.8 355 Z M391 372.4 C389.3 370.8 387.2 369.7 384.9 369.2 387.1 367.6 389.3 366.4 391.4 365.9 391.3 368.3 391.3 370 391 372.4 Z M386.4 377.5 C386.2 379.1 384.6 380.3 383 380 381.4 379.8 380.2 378.2 380.5 376.6 380.8 375 382.3 373.8 383.9 374.1 385.5 374.4 386.6 375.9 386.4 377.5 Z M370.3 388.8 C371.1 390.8 372.4 392.5 374 393.9 372.3 393.8 370.1 393.7 368 393.5 368.7 391.9 369.5 390.3 370.3 388.8 Z" fill="#FCFCFC" fill-opacity="1" stroke="none"/>
   <path id="Path-9" d="M238.5 394.6 C237.1 390.8 235 386.1 233 382.5 228.7 373.7 224.3 367.7 218 362.3 215.2 359.9 207.9 354.5 199.9 355 195.7 355.3 192.4 358.9 192.6 363.2 L192.6 363.8 C192.7 368.8 192.8 370.9 193.4 376.8 195.9 400.9 210.8 404.7 219.9 404.7 L220.4 404.7 220.6 404.7 C224.1 404.5 229.3 404.3 233.6 403.5 235.5 403.1 237.1 402 238.1 400.3 239 398.4 239.2 396.4 238.5 394.6 Z M214.2 376.6 C214.4 378.2 213.3 379.8 211.7 380 210.1 380.2 208.5 379.1 208.3 377.5 208.1 375.9 209.2 374.3 210.8 374.1 212.4 373.9 213.9 375 214.2 376.6 Z M209.7 369.2 C207.4 369.7 205.3 370.8 203.6 372.4 203.4 370 203.3 368.3 203.2 365.9 205.2 366.5 207.5 367.6 209.7 369.2 Z M220.6 393.9 C222.2 392.5 223.5 390.8 224.3 388.8 225.1 390.3 225.9 391.9 226.6 393.5 224.5 393.7 222.3 393.8 220.6 393.9 Z" fill="#FCFCFC" fill-opacity="1" stroke="none"/>
   <path id="Path-10" d="M266.1 308.9 C264.9 308.9 263.7 308.5 262.7 307.7 260.9 306.2 260.3 303.8 261.1 301.7 261.8 299.9 262.6 298 263.4 296 265.5 290.7 267.8 285 269.3 279.5 L254.7 294 C253 295.7 250.2 296 248.2 294.8 246.1 293.5 245.2 290.9 246 288.6 250.3 275.5 251.5 267.1 250.7 253.8 250.5 250.9 252.8 248.4 255.7 248.2 258.6 248 261.1 250.3 261.3 253.2 261.7 260.7 261.6 267 260.7 273.2 L272.5 261.5 C274 260.1 276.1 259.6 278 260.3 279.9 261 281.3 262.7 281.5 264.8 282.3 272.6 280.4 280.8 277.7 288.7 280.8 286 283.7 283.1 286.7 279.9 287.4 279.1 288.1 278.4 288.8 277.6 291.6 274.4 294.6 271.1 298.6 268.4 300 267.5 302.2 266.3 304.8 266.4 307.7 266.5 310.4 268.1 311.9 270.6 313.8 273.7 315.3 277 316.5 280.4 318.4 275.6 319.2 271.4 318.7 267.7 318.5 266.1 319.1 264.5 320.2 263.3 321.4 262.1 323 261.6 324.6 261.8 329.6 262.4 334.4 263.7 338.8 265.6 337.8 260.1 337.3 254.5 338 249 338.3 246.1 341 244 343.9 244.3 346.8 244.6 348.9 247.3 348.6 250.2 347.7 258.2 349.8 267.2 352.3 275.6 353 277.9 352 280.3 350 281.6 348 282.9 345.4 282.6 343.6 281 339.8 277.5 334.8 274.9 329.3 273.4 328.4 281.2 324.6 289.8 318.1 299.2 316.8 301.1 314.3 301.9 312.1 301.2 309.9 300.5 308.4 298.4 308.4 296.1 308.4 289.4 306.9 283.3 303.8 277.6 301.2 279.4 299.1 281.9 296.8 284.5 296.1 285.3 295.3 286.2 294.6 287 286.7 295.6 278.9 302.2 269 308.3 268.1 308.7 267.1 308.9 266.1 308.9 Z" fill="#FCFCFC" fill-opacity="1" stroke="none"/>
  </g>
  <path id="Path-11" d="M331.8 643.5 C326.2 643.3 321.5 641.9 318 640.8 317.1 640.5 315.7 640.1 315 640 311.3 639.9 307.9 639.5 305 639.1 302.7 638.8 300.6 638.5 299.1 638.5 297.6 638.5 295.5 638.8 293.2 639.1 290.2 639.5 286.9 639.9 283.2 640 282.5 640.1 281.1 640.6 280.2 640.8 276.7 641.9 272 643.3 266.5 643.5 264.6 643.6 262.8 643.6 261.1 643.5 266.9 647.8 280.6 650.7 296.7 650.7 312.7 650.7 326.4 647.7 332.3 643.5 332.1 643.5 331.9 643.5 331.8 643.5 Z" fill="#FCFCFC" fill-opacity="1" stroke="none"/>
 </g>
</svg>
