<?xml version="1.0" encoding="UTF-8"?>
<svg width="50px" height="63px" viewBox="0 0 50 63" xmlns="http://www.w3.org/2000/svg" xmlns:xlink="http://www.w3.org/1999/xlink" version="1.1">
 <!-- Generated by Pixelmator Pro 2.2 -->
 <path id="Path" d="M20.3 15.25 C20.3 16.43 21.29 17.38 22.51 17.38 L22.56 17.38 C22.53 17.5 22.52 17.62 22.52 17.74 L22.52 18.78 C22.52 19.71 23.28 20.48 24.21 20.48 25.14 20.48 25.91 19.72 25.91 18.78 L25.91 17.74 C25.91 17.62 25.89 17.5 25.87 17.38 L25.92 17.38 C27.14 17.38 28.13 16.42 28.13 15.25 28.13 14.97 27.9 14.75 27.63 14.75 27.36 14.75 27.13 14.98 27.13 15.25 27.13 15.87 26.59 16.37 25.93 16.37 25.38 16.37 24.93 16.01 24.79 15.53 25.73 15.29 26.43 14.46 26.43 13.48 L26.43 12.98 22.02 12.98 22.02 13.48 C22.02 14.47 22.72 15.29 23.66 15.53 23.52 16.01 23.08 16.37 22.52 16.37 21.86 16.37 21.32 15.87 21.32 15.25 21.32 14.97 21.09 14.75 20.82 14.75 20.55 14.75 20.32 14.98 20.32 15.25 Z M24.9 18.78 C24.9 19.16 24.59 19.47 24.21 19.47 23.83 19.47 23.52 19.16 23.52 18.78 L23.52 17.74 C23.52 17.36 23.83 17.05 24.21 17.05 24.59 17.05 24.9 17.36 24.9 17.74 Z M23.14 13.98 L25.28 13.98 C25.08 14.35 24.68 14.6 24.21 14.6 23.74 14.6 23.34 14.35 23.14 13.98 Z" fill="#000000" fill-opacity="1" stroke="none"/>
 <path id="Path-1" d="M22.78 9.485 L22.78 9.84 C22.78 10.116 22.556 10.34 22.28 10.34 L22.1 10.34 C21.824 10.34 21.6 10.116 21.6 9.84 L21.6 9.13 C21.6 8.854 21.824 8.63 22.1 8.63 L22.28 8.63 C22.556 8.63 22.78 8.854 22.78 9.13 Z" fill="#000000" fill-opacity="1" stroke="none"/>
 <path id="Path-2" d="M27.09 9.485 L27.09 9.84 C27.09 10.116 26.866 10.34 26.59 10.34 L26.41 10.34 C26.134 10.34 25.91 10.116 25.91 9.84 L25.91 9.13 C25.91 8.854 26.134 8.63 26.41 8.63 L26.59 8.63 C26.866 8.63 27.09 8.854 27.09 9.13 Z" fill="#000000" fill-opacity="1" stroke="none"/>
 <path id="Path-3" d="M18.64 44.49 C18.43 44.49 18.26 44.66 18.26 44.87 L18.26 45.98 C18.26 46.19 18.43 46.36 18.64 46.36 18.85 46.36 19.02 46.19 19.02 45.98 L19.02 44.87 C19.02 44.66 18.85 44.49 18.64 44.49 Z" fill="#000000" fill-opacity="1" stroke="none"/>
 <path id="Path-4" d="M20.07 44.49 C19.86 44.49 19.69 44.66 19.69 44.87 L19.69 45.98 C19.69 46.19 19.86 46.36 20.07 46.36 20.28 46.36 20.45 46.19 20.45 45.98 L20.45 44.87 C20.45 44.66 20.28 44.49 20.07 44.49 Z" fill="#000000" fill-opacity="1" stroke="none"/>
 <path id="Path-5" d="M21.5 44.49 C21.29 44.49 21.12 44.66 21.12 44.87 L21.12 45.98 C21.12 46.19 21.29 46.36 21.5 46.36 21.71 46.36 21.88 46.19 21.88 45.98 L21.88 44.87 C21.88 44.66 21.71 44.49 21.5 44.49 Z" fill="#000000" fill-opacity="1" stroke="none"/>
 <path id="Path-6" d="M20.07 41.71 C19.33 41.71 18.65 41.94 18.09 42.33 L18.09 34.5 C18.09 34.22 17.86 34 17.59 34 17.32 34 17.09 34.23 17.09 34.5 L17.09 43.4 C16.76 43.94 16.56 44.56 16.56 45.23 16.56 45.51 16.79 45.73 17.06 45.73 17.33 45.73 17.56 45.5 17.56 45.23 17.56 43.84 18.69 42.72 20.07 42.72 20.35 42.72 20.57 42.49 20.57 42.22 20.57 41.95 20.34 41.72 20.07 41.72 Z" fill="#000000" fill-opacity="1" stroke="none"/>
 <path id="Path-7" d="M30.17 44.49 C29.96 44.49 29.79 44.66 29.79 44.87 L29.79 45.98 C29.79 46.19 29.96 46.36 30.17 46.36 30.38 46.36 30.55 46.19 30.55 45.98 L30.55 44.87 C30.55 44.66 30.38 44.49 30.17 44.49 Z" fill="#000000" fill-opacity="1" stroke="none"/>
 <path id="Path-8" d="M28.75 44.49 C28.54 44.49 28.37 44.66 28.37 44.87 L28.37 45.98 C28.37 46.19 28.54 46.36 28.75 46.36 28.96 46.36 29.13 46.19 29.13 45.98 L29.13 44.87 C29.13 44.66 28.96 44.49 28.75 44.49 Z" fill="#000000" fill-opacity="1" stroke="none"/>
 <path id="Path-9" d="M27.32 44.49 C27.11 44.49 26.94 44.66 26.94 44.87 L26.94 45.98 C26.94 46.19 27.11 46.36 27.32 46.36 27.53 46.36 27.7 46.19 27.7 45.98 L27.7 44.87 C27.7 44.66 27.53 44.49 27.32 44.49 Z" fill="#000000" fill-opacity="1" stroke="none"/>
 <path id="Path-10" d="M25.79 35.62 C25.51 35.62 25.29 35.85 25.29 36.12 L25.29 43.21 23.52 43.21 23.52 36.12 C23.52 35.84 23.29 35.62 23.02 35.62 22.75 35.62 22.52 35.85 22.52 36.12 L22.52 44.36 C22.5 44.44 22.49 44.52 22.52 44.61 L22.52 44.68 22.52 45.08 C22.52 45.18 22.56 45.27 22.61 45.35 22.67 45.57 22.85 45.73 23.09 45.73 23.37 45.73 23.59 45.5 23.59 45.23 23.59 45.05 23.55 44.87 23.52 44.69 L23.52 44.23 25.29 44.23 25.29 45.09 C25.29 45.37 25.52 45.59 25.79 45.59 26.06 45.59 26.29 45.36 26.29 45.09 L26.29 36.13 C26.29 35.85 26.06 35.63 25.79 35.63 Z" fill="#000000" fill-opacity="1" stroke="none"/>
 <path id="Path-11" d="M31.74 34.49 C31.74 34.21 31.51 33.99 31.24 33.99 30.97 33.99 30.74 34.22 30.74 34.49 L30.74 42.32 C30.17 41.93 29.49 41.7 28.75 41.7 28.47 41.7 28.25 41.93 28.25 42.2 28.25 42.47 28.48 42.7 28.75 42.7 30.14 42.7 31.26 43.83 31.26 45.21 31.26 45.49 31.49 45.71 31.76 45.71 32.03 45.71 32.26 45.48 32.26 45.21 32.26 44.54 32.06 43.91 31.73 43.38 L31.73 34.48 Z" fill="#000000" fill-opacity="1" stroke="none"/>
 <path id="Path-12" d="M34.56 32.27 C38.04 29.37 39.29 24.46 37.51 20.2 36.74 18.36 35.47 16.79 33.83 15.65 33.63 15.51 33.35 15.54 33.18 15.71 33.01 15.89 32.99 16.16 33.14 16.36 33.56 16.92 33.92 17.56 34.22 18.28 35.59 21.57 34.99 25.29 32.74 27.98 L30.49 16.33 30.49 13.98 C31.95 13.97 33.13 12.82 33.13 11.41 33.13 11.16 33.13 10.85 29.32 5.65 29.05 5.28 28.68 4.99 28.25 4.82 L26.42 4.08 C24.99 3.5 23.41 3.5 21.98 4.08 L20.15 4.82 C19.72 4.99 19.36 5.28 19.08 5.65 15.27 10.85 15.27 11.16 15.27 11.41 15.27 12.82 16.46 13.97 17.93 13.98 L17.93 16.24 C17.93 16.24 14.99 32.21 14.99 32.21 L14.97 32.21 C13.16 32.21 11.68 33.68 11.68 35.5 L11.68 42.08 C11.68 43.89 13.15 45.37 14.97 45.37 15.25 45.37 15.47 45.14 15.47 44.87 15.47 44.6 15.24 44.37 14.97 44.37 13.71 44.37 12.69 43.35 12.69 42.09 L12.69 35.51 C12.69 34.25 13.71 33.23 14.97 33.23 15.05 33.23 15.13 33.24 15.2 33.25 15.23 33.27 15.27 33.29 15.31 33.29 L15.4 33.29 C15.42 33.29 15.44 33.29 15.46 33.28 15.8 33.35 16.12 33.5 16.4 33.72 16.62 33.9 16.93 33.86 17.11 33.64 17.28 33.42 17.25 33.11 17.03 32.93 16.72 32.68 16.36 32.49 15.98 32.37 L17.68 23.12 C18.93 23.82 20.82 24.29 22.95 24.43 23.23 24.82 23.69 25.08 24.21 25.08 24.73 25.08 25.19 24.82 25.47 24.43 27.63 24.29 29.53 23.81 30.77 23.1 L32.58 32.51 C32.32 32.62 32.08 32.76 31.86 32.94 31.64 33.11 31.61 33.43 31.78 33.65 31.96 33.87 32.27 33.9 32.49 33.73 32.71 33.55 32.95 33.43 33.21 33.34 L33.25 33.34 C33.27 33.34 33.28 33.33 33.29 33.32 33.49 33.26 33.7 33.23 33.92 33.23 35.18 33.23 36.2 34.25 36.2 35.51 L36.2 42.09 C36.2 43.35 35.18 44.37 33.92 44.37 33.64 44.37 33.42 44.6 33.42 44.87 33.42 45.14 33.65 45.37 33.92 45.37 35.73 45.37 37.21 43.9 37.21 42.08 L37.21 35.5 C37.21 33.9 36.07 32.57 34.56 32.28 Z M32.99 29.25 C35.77 26.4 36.68 22.26 35.39 18.52 35.87 19.15 36.27 19.84 36.58 20.58 38.26 24.61 36.95 29.26 33.48 31.82 L32.98 29.24 C32.98 29.24 32.98 29.24 32.98 29.24 Z M16.27 11.51 C16.32 11.37 16.71 10.6 19.9 6.25 20.06 6.03 20.28 5.86 20.53 5.76 L22.36 5.02 C23.55 4.54 24.86 4.54 26.05 5.02 L27.88 5.76 C28.13 5.86 28.35 6.03 28.51 6.25 31.7 10.6 32.1 11.38 32.13 11.42 32.13 12.28 31.39 12.98 30.47 12.98 29.55 12.98 28.81 12.28 28.81 11.42 28.81 11.14 28.58 10.92 28.31 10.92 28.04 10.92 27.81 11.15 27.81 11.42 27.81 12.5 28.51 13.43 29.49 13.8 L29.49 16.43 C29.49 16.43 30.23 20.23 30.23 20.23 29.23 21.23 26.85 21.91 24.21 21.91 21.57 21.91 19.26 21.25 18.22 20.26 L18.94 16.34 18.94 13.8 C19.91 13.42 20.6 12.5 20.6 11.42 20.6 11.14 20.37 10.92 20.1 10.92 19.83 10.92 19.6 11.15 19.6 11.42 19.6 12.28 18.86 12.98 17.94 12.98 17.02 12.98 16.28 12.28 16.27 11.52 Z M17.84 22.29 L18.06 21.1 C19.15 21.9 20.93 22.44 22.98 22.6 22.79 22.86 22.67 23.18 22.67 23.53 L22.67 23.61 C20.64 23.45 18.89 22.97 17.83 22.29 Z M24.22 24.33 C23.78 24.33 23.42 23.97 23.42 23.53 23.42 23.09 23.78 22.73 24.22 22.73 24.66 22.73 25.02 23.09 25.02 23.53 25.02 23.97 24.66 24.33 24.22 24.33 Z M25.76 23.6 C25.76 23.6 25.76 23.55 25.76 23.52 25.76 23.17 25.64 22.85 25.44 22.59 27.51 22.43 29.3 21.86 30.37 21.05 L30.6 22.25 C29.56 22.93 27.78 23.42 25.74 23.59 Z" fill="#000000" fill-opacity="1" stroke="none"/>
</svg>
