<?xml version="1.0" encoding="UTF-8"?>
<svg width="64px" height="80px" viewBox="0 0 64 80" xmlns="http://www.w3.org/2000/svg" xmlns:xlink="http://www.w3.org/1999/xlink" version="1.1">
 <!-- Generated by Pixelmator Pro 2.2 -->
 <g id="group">
  <path id="Path" d="M63.217 56.023 C56.867 54.613 51.737 52.973 47.336 49.551 L46.016 48.523 C46.663 47.103 46.999 45.561 47 44 47 43.735 46.895 43.48 46.707 43.293 46.52 43.105 46.265 43 46 43 L43.635 43 45.768 35 49 35 C49.304 35 49.591 34.862 49.781 34.625 L53.781 29.625 C53.923 29.448 54 29.227 54 29 L54 16 C54 15.735 53.895 15.48 53.707 15.293 53.52 15.105 53.265 15 53 15 L52 15 52 11 C51.999 9.729 51.198 8.597 50 8.171 L50 7 C49.999 5.701 49.162 4.549 47.927 4.146 47.509 1.751 45.431 0.003 43 0 L21 0 C18.569 0.003 16.491 1.751 16.073 4.146 14.838 4.549 14.002 5.701 14 7 L14 8.171 C12.802 8.596 12.002 9.729 12 11 L12 15 11 15 C10.735 15 10.48 15.105 10.293 15.293 10.105 15.48 10 15.735 10 16 L10 29 C10 29.227 10.077 29.448 10.219 29.625 L14.219 34.625 C14.409 34.862 14.696 35 15 35 L18.232 35 20.365 43 18 43 C17.735 43 17.48 43.105 17.293 43.293 17.105 43.48 17 43.735 17 44 17.001 45.56 17.336 47.102 17.984 48.522 L16.664 49.551 C12.264 52.973 7.133 54.613 0.783 56.023 0.325 56.125 -0 56.531 -0 57 L-0 63 C-0 63.265 0.105 63.52 0.293 63.707 0.48 63.895 0.735 64 1 64 L63 64 C63.265 64 63.52 63.895 63.707 63.707 63.895 63.52 64 63.265 64 63 L64 57 C64 56.531 63.675 56.125 63.217 56.023 Z M27.387 17 L36.613 17 35.279 21 28.721 21 Z M45 15 L19 15 19 10.871 C27.628 9.717 36.372 9.717 45 10.871 Z M38.721 17 L52 17 52 25 47.48 25 43.78 20.375 C43.59 20.138 43.303 20 43 20 L37.721 20 Z M14 11 C14 10.735 14.105 10.48 14.293 10.293 14.48 10.105 14.735 10 15 10 15.265 10 15.52 9.895 15.707 9.707 15.895 9.52 16 9.265 16 9 L16 7 C16 6.735 16.105 6.48 16.293 6.293 16.48 6.105 16.735 6 17 6 17.265 6 17.52 5.895 17.707 5.707 17.895 5.52 18 5.265 18 5 18 4.204 18.316 3.441 18.879 2.879 19.441 2.316 20.204 2 21 2 L43 2 C43.796 2 44.559 2.316 45.121 2.879 45.684 3.441 46 4.204 46 5 46 5.265 46.105 5.52 46.293 5.707 46.48 5.895 46.735 6 47 6 47.265 6 47.52 6.105 47.707 6.293 47.895 6.48 48 6.735 48 7 L48 9 C48 9.265 48.105 9.52 48.293 9.707 48.48 9.895 48.735 10 49 10 49.265 10 49.52 10.105 49.707 10.293 49.895 10.48 50 10.735 50 11 L50 15 47 15 47 10 C47 9.502 46.634 9.081 46.142 9.01 36.762 7.67 27.238 7.67 17.858 9.01 17.366 9.081 17 9.503 17 10 L17 15 14 15 Z M18 17 L25.279 17 26.279 20 21 20 C20.696 20 20.409 20.138 20.219 20.375 L16.52 25 12 25 12 17 Z M12 28.649 L12 27 17 27 C17.304 27 17.591 26.862 17.781 26.625 L21.48 22 26.946 22 27.046 22.316 C27.183 22.726 27.568 23.002 28 23 L36 23 C36.431 23 36.813 22.725 36.949 22.316 L37.054 22 42.52 22 46.22 26.625 C46.41 26.862 46.697 27 47 27 L52 27 52 28.649 48.52 33 36.333 33 32.6 30.2 C32.244 29.933 31.756 29.933 31.4 30.2 L27.667 33 15.48 33 Z M28 35 C28.216 35 28.427 34.93 28.6 34.8 L32 32.25 35.4 34.8 C35.573 34.93 35.784 35 36 35 L43.7 35 41.533 43.128 C40.764 46 38.162 47.998 35.189 48 L28.811 48 C25.838 47.997 23.238 46 22.469 43.128 L20.3 35 Z M21.024 45 C22.421 48.044 25.462 49.996 28.811 50 L35.189 50 C38.538 49.996 41.579 48.044 42.976 45 L44.945 45 C44.43 49.553 40.582 52.994 36 53 L28 53 C23.418 52.994 19.57 49.553 19.055 45 Z M62 62 L2 62 2 57.8 C8.256 56.367 13.383 54.635 17.891 51.129 L18.982 50.281 C21.035 53.235 24.403 54.998 28 55 L36 55 C39.597 54.998 42.965 53.235 45.018 50.281 L46.109 51.129 C50.617 54.635 55.744 56.367 62 57.8 Z" fill="#000000" fill-opacity="1" stroke="none"/>
  <path id="Path-1" d="M27 39 L37 39 37 41 27 41 Z" fill="#000000" fill-opacity="1" stroke="none"/>
  <path id="Path-2" d="M30 43 L34 43 34 45 30 45 Z" fill="#000000" fill-opacity="1" stroke="none"/>
 </g>
</svg>
